<svg width="150" height="150" viewBox="0 0 150 150" fill="none" xmlns="http://www.w3.org/2000/svg">
<g clip-path="url(#clip0_2990_36633)">
<rect width="150" height="150" fill="#082214"/>
<path d="M29.1051 66.6052C28.6339 62.8731 31.2774 59.4657 35.0095 58.9945L44.2458 57.8283L49.3042 97.8934C49.7754 101.625 47.132 105.033 43.3998 105.504L34.1636 106.67L29.1051 66.6052Z" fill="white"/>
<path d="M48.0625 78.8652L53.9685 78.1196C61.4327 77.1772 68.2476 82.4642 69.19 89.9284L70.7209 102.054L58.0574 103.653C54.3253 104.124 50.9178 101.481 50.4466 97.7486L48.0625 78.8652Z" fill="white"/>
<ellipse cx="56.1287" cy="66.5613" rx="9.78765" ry="10.1131" transform="rotate(-7.19582 56.1287 66.5613)" fill="white"/>
<path d="M71.1573 77.826L71.9635 62.6312C71.9705 62.5732 72.0021 62.5406 72.0584 62.5334L75.1944 62.1375C75.2507 62.1304 75.2894 62.1541 75.3106 62.2087L79.7626 76.7395C79.7786 76.809 79.7548 76.8478 79.6915 76.8558L77.2947 77.1584C77.2243 77.1673 77.1811 77.137 77.1652 77.0674L76.7329 75.513L73.787 75.8849L73.7547 77.498C73.7566 77.5693 73.7258 77.609 73.6625 77.617L71.2551 77.9209C71.1988 77.928 71.1662 77.8964 71.1573 77.826ZM74.3546 67.296L74.1266 66.5095L74.1329 67.324L73.928 73.5179L76.0081 73.2553L74.3546 67.296ZM84.6702 76.4417C83.8888 76.5404 83.1605 76.4357 82.4851 76.1276C81.8027 75.8204 81.2266 75.364 80.7568 74.7582C80.294 74.1516 80.0116 73.4435 79.9094 72.634L79.0442 65.7814C78.9446 64.993 79.0476 64.2506 79.353 63.5541C79.6504 62.8514 80.095 62.2661 80.6867 61.7981C81.2775 61.323 81.953 61.0375 82.7132 60.9415C83.5086 60.8411 84.2506 60.9405 84.9392 61.2397C85.6286 61.546 86.2008 61.9994 86.6556 62.5999C87.1175 63.1995 87.3995 63.9041 87.5017 64.7136L87.627 65.7061C87.6341 65.7624 87.6025 65.795 87.5321 65.8039L85.1036 66.1105C85.0473 66.1176 85.0156 66.093 85.0085 66.0367L84.9045 65.2131C84.8352 64.6641 84.623 64.2296 84.2679 63.9097C83.9129 63.5898 83.5031 63.4592 83.0385 63.5178C82.6232 63.5703 82.2754 63.7894 81.9951 64.1752C81.7149 64.561 81.6041 64.9862 81.6627 65.4508L82.5279 72.3034C82.5875 72.775 82.7974 73.1633 83.1577 73.4682C83.5171 73.7661 83.9115 73.8879 84.3409 73.8337C84.8055 73.7751 85.1718 73.5608 85.4397 73.1908C85.7068 72.8138 85.8097 72.3825 85.7483 71.8968L85.6137 70.8303L84.1038 71.021C84.0264 71.0308 83.9832 71.0004 83.9743 70.9301L83.669 68.5121C83.6601 68.4417 83.6944 68.4016 83.7719 68.3919L87.8158 67.8813C87.8722 67.8742 87.9048 67.9058 87.9136 67.9762L88.3669 71.5662C88.4691 72.3757 88.3715 73.1317 88.074 73.8344C87.7695 74.5379 87.3249 75.1232 86.7403 75.5904C86.1556 76.0575 85.4656 76.3413 84.6702 76.4417Z" fill="white"/>
<path d="M78.903 96.1808L76.4639 96.4888C76.4005 96.4968 76.3644 96.4656 76.3555 96.3952L74.7985 84.0626L71.9899 84.4172C71.9195 84.4261 71.8798 84.3954 71.8709 84.325L71.5868 81.9043C71.5797 81.848 71.6043 81.8163 71.6606 81.8092L79.8753 80.7721C79.9527 80.7623 79.995 80.7856 80.0021 80.8419L80.3074 83.2598C80.3162 83.3302 80.2925 83.369 80.2362 83.3761L77.3959 83.7347L78.9741 96.0646C78.983 96.135 78.9593 96.1737 78.903 96.1808ZM90.0213 94.7771L83.0314 95.6596C82.9751 95.6667 82.9425 95.6351 82.9336 95.5647L81.0791 80.7059C81.072 80.6496 81.0966 80.6179 81.1529 80.6108L88.1005 79.7336C88.1568 79.7265 88.1894 79.7581 88.1983 79.8285L88.5036 82.2465C88.5107 82.3028 88.4861 82.3345 88.4298 82.3416L83.9951 82.9015L84.4217 86.2803L88.8564 85.7204C88.9127 85.7133 88.9444 85.7379 88.9515 85.7942L89.2819 88.2411C89.289 88.2975 89.2644 88.3292 89.2081 88.3363L84.7523 88.8988L85.2296 92.6789L89.6854 92.1163C89.7417 92.1092 89.7743 92.1408 89.7832 92.2112L90.0951 94.682C90.1022 94.7383 90.0776 94.77 90.0213 94.7771ZM91.2856 94.5102L92.0918 79.3155C92.0988 79.2574 92.1304 79.2248 92.1867 79.2177L95.3227 78.8217C95.379 78.8146 95.4178 78.8384 95.4389 78.8929L99.8909 93.4237C99.9069 93.4932 99.8831 93.532 99.8198 93.54L97.423 93.8426C97.3526 93.8515 97.3094 93.8212 97.2935 93.7517L96.8612 92.1972L93.9153 92.5691L93.883 94.1823C93.8849 94.2535 93.8541 94.2932 93.7908 94.3012L91.3834 94.6051C91.3271 94.6122 91.2945 94.5806 91.2856 94.5102ZM94.4829 83.9802L94.2549 83.1937L94.2612 84.0082L94.0563 90.2021L96.1364 89.9395L94.4829 83.9802ZM104.82 93.1233C104.038 93.2219 103.299 93.115 102.602 92.8026C101.911 92.4893 101.334 92.0258 100.871 91.4121C100.413 90.7905 100.133 90.0714 100.03 89.2549L99.1989 82.5052C99.0976 81.7027 99.1891 80.9546 99.4734 80.2607C99.7568 79.5599 100.194 78.9719 100.785 78.4969C101.382 78.0139 102.074 77.7226 102.863 77.6231C103.665 77.5218 104.404 77.6251 105.079 77.9332C105.762 78.2403 106.331 78.7012 106.788 79.3158C107.251 79.9224 107.533 80.6305 107.635 81.44L107.761 82.4325C107.768 82.4889 107.743 82.5206 107.687 82.5277L105.258 82.8343C105.202 82.8414 105.17 82.8168 105.163 82.7605L105.038 81.768C104.977 81.2893 104.771 80.8971 104.417 80.5913C104.064 80.2854 103.655 80.1619 103.191 80.2205C102.677 80.2854 102.305 80.5111 102.075 80.8978C101.845 81.2844 101.759 81.71 101.817 82.1746L102.669 88.9216C102.736 89.4495 102.946 89.8629 103.298 90.1617C103.649 90.4534 104.047 90.5713 104.49 90.5153C104.955 90.4566 105.319 90.2247 105.582 89.8196C105.845 89.4074 105.948 88.9725 105.89 88.515L105.763 87.5119C105.756 87.4556 105.781 87.4239 105.837 87.4168L108.287 87.1075C108.343 87.1004 108.375 87.125 108.382 87.1813L108.508 88.1844C108.611 88.9939 108.514 89.757 108.218 90.4737C107.914 91.1843 107.471 91.7802 106.888 92.2614C106.305 92.7355 105.615 93.0228 104.82 93.1233ZM113.145 91.8576L110.695 92.1669C110.639 92.174 110.606 92.1424 110.597 92.072L108.743 77.2132C108.736 77.1569 108.767 77.1243 108.838 77.1154L111.245 76.8114C111.316 76.8026 111.354 76.8263 111.361 76.8826L112.083 82.7665L115.324 82.3572L114.582 76.476C114.575 76.4197 114.599 76.388 114.656 76.3809L117.063 76.0769C117.133 76.068 117.172 76.0917 117.179 76.148L119.097 90.9988C119.106 91.0692 119.075 91.1089 119.005 91.1178L116.576 91.4244C116.506 91.4333 116.466 91.4025 116.458 91.3321L115.655 84.9758L112.414 85.385L113.216 91.7414C113.225 91.8118 113.201 91.8505 113.145 91.8576Z" fill="white"/>
<path d="M94.9088 8.80972C74.5775 0.368048 17.1801 12.3271 -8.97721 19.3618C-24.731 23.2613 -8.97721 54.585 -13.4358 66.9205C-17.8945 79.256 -14.3276 99.4685 -2.88376 130.382C8.56005 161.295 94.9088 133.8 129.24 130.382C163.572 126.963 178.434 66.0288 155.546 59.9353C132.659 53.8419 120.323 19.3618 94.9088 8.80972Z" stroke="#DCE033" stroke-width="0.594484" stroke-linejoin="round"/>
<path d="M98.3827 -2.19696C74.5318 -12.107 7.19821 1.93224 -23.4872 10.1906C-41.9682 14.7685 -23.4872 51.5407 -28.7177 66.022C-33.9481 80.5032 -29.7638 104.232 -16.3389 140.522C-2.91403 176.812 98.3827 144.535 138.657 140.522C178.932 136.509 196.367 64.9751 169.517 57.8217C142.667 50.6683 128.196 10.1906 98.3827 -2.19696Z" stroke="#DCE033" stroke-width="0.594484" stroke-linejoin="round"/>
<path d="M100.777 -18.3164C72.5699 -30.0426 -7.0608 -13.4305 -43.3503 -3.6587C-65.2064 1.75811 -43.3503 45.2693 -49.536 62.4044C-55.7217 79.5395 -50.7731 107.616 -34.8965 150.557C-19.0198 193.498 100.777 155.306 148.407 150.557C196.037 145.809 216.656 61.1657 184.902 52.7014C153.149 44.2371 136.035 -3.65869 100.777 -18.3164Z" stroke="#DCE033" stroke-width="0.586014" stroke-linejoin="round"/>
<path d="M106.551 -32.3004C73.6833 -45.9643 -19.1063 -26.607 -61.3927 -15.2204C-86.8606 -8.90848 -61.3927 41.793 -68.6006 61.7597C-75.8085 81.7264 -70.0421 114.443 -51.5419 164.48C-33.0416 214.517 106.551 170.013 162.052 164.48C217.553 158.947 241.579 60.3163 204.579 50.4532C167.578 40.5901 147.636 -15.2204 106.551 -32.3004Z" stroke="#DCE033" stroke-width="0.682853" stroke-linejoin="round"/>
<path d="M92.4785 16.8186C74.7144 9.4357 24.5644 19.8948 1.70993 26.0472C-12.0547 29.4577 1.70993 56.8527 -2.18571 67.6411C-6.08136 78.4295 -2.96484 96.1069 7.03398 123.143C17.0328 150.179 92.4785 126.132 122.475 123.143C152.471 120.153 165.457 66.8612 145.459 61.532C125.462 56.2028 114.684 26.0472 92.4785 16.8186Z" stroke="#DCE033" stroke-width="0.594484" stroke-linejoin="round"/>
<path d="M89.9122 25.8641C74.7945 19.5642 32.1157 28.489 12.666 33.7389C0.951953 36.649 12.666 60.0252 9.35068 69.2309C6.03539 78.4367 8.68762 93.5208 17.1969 116.591C25.7061 139.66 89.9122 119.142 115.44 116.591C140.968 114.04 152.019 68.5654 135 64.018C117.982 59.4706 108.809 33.7389 89.9122 25.8641Z" stroke="#DCE033" stroke-width="0.594484" stroke-linejoin="round"/>
<path d="M87.9865 31.8578C74.8536 26.3883 37.7782 34.1367 20.882 38.6946C10.706 41.2212 20.882 61.5163 18.002 69.5086C15.122 77.501 17.426 90.597 24.8181 110.626C32.2101 130.655 87.9865 112.841 110.163 110.626C132.339 108.411 141.939 68.9309 127.155 64.9828C112.371 61.0348 104.403 38.6946 87.9865 31.8578Z" stroke="#DCE033" stroke-width="0.594484" stroke-linejoin="round"/>
</g>
<defs>
<clipPath id="clip0_2990_36633">
<rect width="150" height="150" fill="white"/>
</clipPath>
</defs>
</svg>
