<svg width="1920" height="428" viewBox="0 0 1920 428" fill="none" xmlns="http://www.w3.org/2000/svg">
<g clip-path="url(#clip0_1836_17721)">
<g clip-path="url(#clip1_1836_17721)">
<rect width="1920" height="1080" transform="translate(0 -355)" fill="#032613"/>
<path d="M811.4 1360.91V1318.11H845V1405.31H703.4V1360.91H811.4ZM787.6 1194.93C790.667 1194.93 793.6 1195.13 796.4 1195.53V1266.93C806.133 1266.27 811 1262.2 811 1254.73C811 1249.93 808.8 1246.47 804.4 1244.33V1197.33C812.4 1198.93 819.6 1202.33 826 1207.53C832.267 1212.6 837.267 1219.07 841 1226.93C844.6 1234.67 846.4 1243.2 846.4 1252.53C846.4 1263.73 844.067 1273.73 839.4 1282.53C834.733 1291.2 828.067 1298 819.4 1302.93C810.6 1307.73 800.333 1310.13 788.6 1310.13C776.867 1310.13 766.667 1307.73 758 1302.93C749.2 1298 742.467 1291.2 737.8 1282.53C733.133 1273.73 730.8 1263.73 730.8 1252.53C730.8 1241.33 733.133 1231.4 737.8 1222.73C742.333 1213.93 748.867 1207.13 757.4 1202.33C765.933 1197.4 776 1194.93 787.6 1194.93ZM777 1239.93C773.267 1239.93 770.467 1241.13 768.6 1243.53C766.6 1245.93 765.6 1248.93 765.6 1252.53C765.6 1260.4 769.4 1265 777 1266.33V1239.93ZM788.6 1186.89C776.733 1186.89 766.467 1184.89 757.8 1180.89C749 1176.76 742.333 1171.16 737.8 1164.09C733.133 1157.03 730.8 1149.09 730.8 1140.29C730.8 1132.96 732.333 1126.63 735.4 1121.29C738.333 1115.96 742.4 1111.89 747.6 1109.09H732.2V1064.89H845L845 1109.09H829.6C834.8 1111.89 838.933 1115.96 842 1121.29C844.933 1126.63 846.4 1132.96 846.4 1140.29C846.4 1149.09 844.133 1157.03 839.6 1164.09C834.933 1171.16 828.267 1176.76 819.6 1180.89C810.8 1184.89 800.467 1186.89 788.6 1186.89ZM788.6 1109.09C782.6 1109.09 777.933 1110.63 774.6 1113.69C771.267 1116.76 769.6 1120.69 769.6 1125.49C769.6 1130.29 771.267 1134.23 774.6 1137.29C777.933 1140.36 782.6 1141.89 788.6 1141.89C794.6 1141.89 799.267 1140.36 802.6 1137.29C805.933 1134.23 807.6 1130.29 807.6 1125.49C807.6 1120.69 805.933 1116.76 802.6 1113.69C799.267 1110.63 794.6 1109.09 788.6 1109.09ZM753 1000.56C746.467 996.022 741.267 990.488 737.4 983.955C733.4 977.422 731.4 970.622 731.4 963.555H778.8V976.155C778.8 984.555 780.267 990.755 783.2 994.755C786.133 998.622 791.333 1000.56 798.8 1000.56H845V1044.96H732.2V1000.56H753ZM731.4 872.596C731.4 859.662 735.733 849.596 744.4 842.396C753.067 835.062 764.8 831.396 779.6 831.396H845V875.596H785.2C779.867 875.596 775.667 877.062 772.6 879.996C769.4 882.796 767.8 886.596 767.8 891.396C767.8 896.329 769.4 900.196 772.6 902.996C775.667 905.796 779.867 907.196 785.2 907.196H845V951.596H732.2V907.196H749.4C744.067 903.729 739.733 899.129 736.4 893.396C733.067 887.529 731.4 880.596 731.4 872.596ZM1146.4 1349.91C1146.4 1366.84 1142.47 1380.84 1134.6 1391.91C1126.6 1402.84 1114.93 1408.77 1099.6 1409.71V1362.51C1107.73 1361.84 1111.8 1358.24 1111.8 1351.71C1111.8 1349.31 1111.27 1347.31 1110.2 1345.71C1109 1343.97 1107.2 1343.11 1104.8 1343.11C1101.47 1343.11 1098.8 1344.91 1096.8 1348.51C1094.67 1352.11 1092.27 1357.71 1089.6 1365.31C1086.4 1374.37 1083.27 1381.91 1080.2 1387.91C1077.13 1393.77 1072.67 1398.84 1066.8 1403.11C1060.93 1407.37 1053.4 1409.44 1044.2 1409.31C1035 1409.31 1027.2 1406.97 1020.8 1402.31C1014.27 1397.51 1009.33 1391.04 1006 1382.91C1002.67 1374.64 1001 1365.37 1001 1355.11C1001 1337.77 1005 1324.04 1013 1313.91C1021 1303.64 1032.27 1298.24 1046.8 1297.71V1345.51C1042.8 1345.64 1039.93 1346.64 1038.2 1348.51C1036.47 1350.37 1035.6 1352.64 1035.6 1355.31C1035.6 1357.17 1036.27 1358.71 1037.6 1359.91C1038.8 1361.11 1040.53 1361.71 1042.8 1361.71C1046 1361.71 1048.67 1359.97 1050.8 1356.51C1052.8 1352.91 1055.27 1347.24 1058.2 1339.51C1061.53 1330.57 1064.73 1323.24 1067.8 1317.51C1070.87 1311.64 1075.13 1306.57 1080.6 1302.31C1086.07 1298.04 1092.93 1295.91 1101.2 1295.91C1109.87 1295.91 1117.67 1298.04 1124.6 1302.31C1131.4 1306.57 1136.73 1312.77 1140.6 1320.91C1144.47 1329.04 1146.4 1338.71 1146.4 1349.91ZM1031.4 1129.71C1031.4 1115.31 1035.73 1104.17 1044.4 1096.31C1053.07 1088.31 1064.8 1084.31 1079.6 1084.31H1145V1128.51H1085.2C1080.4 1128.51 1076.67 1129.97 1074 1132.91C1071.2 1135.71 1069.8 1139.51 1069.8 1144.31C1069.8 1149.24 1071.2 1153.11 1074 1155.91C1076.67 1158.71 1080.4 1160.11 1085.2 1160.11H1145V1204.31H1085.2C1080.4 1204.31 1076.67 1205.77 1074 1208.71C1071.2 1211.51 1069.8 1215.31 1069.8 1220.11C1069.8 1225.04 1071.2 1228.91 1074 1231.71C1076.67 1234.51 1080.4 1235.91 1085.2 1235.91H1145V1280.31H1032.2V1235.91H1047.4C1042.6 1232.71 1038.73 1228.37 1035.8 1222.91C1032.87 1217.31 1031.4 1210.77 1031.4 1203.31C1031.4 1195.17 1033.2 1187.97 1036.8 1181.71C1040.27 1175.44 1045.2 1170.44 1051.6 1166.71C1045.73 1162.57 1040.93 1157.31 1037.2 1150.91C1033.33 1144.51 1031.4 1137.44 1031.4 1129.71ZM1088.6 1071.07C1076.73 1071.07 1066.47 1069.07 1057.8 1065.07C1049 1060.94 1042.33 1055.34 1037.8 1048.27C1033.13 1041.21 1030.8 1033.27 1030.8 1024.47C1030.8 1017.14 1032.33 1010.81 1035.4 1005.47C1038.33 1000.14 1042.4 996.072 1047.6 993.272H1032.2V949.072H1145V993.272H1129.6C1134.8 996.072 1138.93 1000.14 1142 1005.47C1144.93 1010.81 1146.4 1017.14 1146.4 1024.47C1146.4 1033.27 1144.13 1041.21 1139.6 1048.27C1134.93 1055.34 1128.27 1060.94 1119.6 1065.07C1110.8 1069.07 1100.47 1071.07 1088.6 1071.07ZM1088.6 993.272C1082.6 993.272 1077.93 994.806 1074.6 997.872C1071.27 1000.94 1069.6 1004.87 1069.6 1009.67C1069.6 1014.47 1071.27 1018.41 1074.6 1021.47C1077.93 1024.54 1082.6 1026.07 1088.6 1026.07C1094.6 1026.07 1099.27 1024.54 1102.6 1021.47C1105.93 1018.41 1107.6 1014.47 1107.6 1009.67C1107.6 1004.87 1105.93 1000.94 1102.6 997.872C1099.27 994.806 1094.6 993.272 1088.6 993.272ZM1053 884.735C1046.47 880.201 1041.27 874.668 1037.4 868.135C1033.4 861.601 1031.4 854.801 1031.4 847.735H1078.8V860.335C1078.8 868.735 1080.27 874.935 1083.2 878.935C1086.13 882.801 1091.33 884.735 1098.8 884.735H1145V929.135H1032.2V884.735H1053ZM1107.2 765.575H1145V782.375C1145 813.309 1129.6 828.775 1098.8 828.775H1069.2V842.775H1032.2V828.775H1005L1005 784.375H1032.2V765.975H1069.2V784.375H1099.6C1102.27 784.375 1104.2 783.775 1105.4 782.575C1106.6 781.242 1107.2 779.109 1107.2 776.175V765.575ZM1087.6 639.466C1090.67 639.466 1093.6 639.666 1096.4 640.066V711.466C1106.13 710.799 1111 706.733 1111 699.266C1111 694.466 1108.8 690.999 1104.4 688.866V641.866C1112.4 643.466 1119.6 646.866 1126 652.066C1132.27 657.133 1137.27 663.599 1141 671.466C1144.6 679.199 1146.4 687.733 1146.4 697.066C1146.4 708.266 1144.07 718.266 1139.4 727.066C1134.73 735.733 1128.07 742.533 1119.4 747.466C1110.6 752.266 1100.33 754.666 1088.6 754.666C1076.87 754.666 1066.67 752.266 1058 747.466C1049.2 742.533 1042.47 735.733 1037.8 727.066C1033.13 718.266 1030.8 708.266 1030.8 697.066C1030.8 685.866 1033.13 675.933 1037.8 667.266C1042.33 658.466 1048.87 651.666 1057.4 646.866C1065.93 641.933 1076 639.466 1087.6 639.466ZM1077 684.466C1073.27 684.466 1070.47 685.666 1068.6 688.066C1066.6 690.466 1065.6 693.466 1065.6 697.066C1065.6 704.933 1069.4 709.533 1077 710.866V684.466ZM1053 581.024C1046.47 576.49 1041.27 570.957 1037.4 564.424C1033.4 557.89 1031.4 551.09 1031.4 544.024H1078.8V556.624C1078.8 565.024 1080.27 571.224 1083.2 575.224C1086.13 579.09 1091.33 581.024 1098.8 581.024H1145V625.424H1032.2V581.024H1053ZM1146.6 476.08C1146.6 483.813 1144.53 490.013 1140.4 494.68C1136.27 499.347 1131.07 501.68 1124.8 501.68C1118.4 501.68 1113.13 499.347 1109 494.68C1104.73 490.013 1102.6 483.813 1102.6 476.08C1102.6 468.48 1104.73 462.347 1109 457.68C1113.13 453.013 1118.4 450.68 1124.8 450.68C1131.07 450.68 1136.27 453.013 1140.4 457.68C1144.53 462.347 1146.6 468.48 1146.6 476.08ZM1411.4 1360.91V1318.11H1445V1405.31H1303.4V1360.91H1411.4ZM1387.6 1194.93C1390.67 1194.93 1393.6 1195.13 1396.4 1195.53V1266.93C1406.13 1266.27 1411 1262.2 1411 1254.73C1411 1249.93 1408.8 1246.47 1404.4 1244.33V1197.33C1412.4 1198.93 1419.6 1202.33 1426 1207.53C1432.27 1212.6 1437.27 1219.07 1441 1226.93C1444.6 1234.67 1446.4 1243.2 1446.4 1252.53C1446.4 1263.73 1444.07 1273.73 1439.4 1282.53C1434.73 1291.2 1428.07 1298 1419.4 1302.93C1410.6 1307.73 1400.33 1310.13 1388.6 1310.13C1376.87 1310.13 1366.67 1307.73 1358 1302.93C1349.2 1298 1342.47 1291.2 1337.8 1282.53C1333.13 1273.73 1330.8 1263.73 1330.8 1252.53C1330.8 1241.33 1333.13 1231.4 1337.8 1222.73C1342.33 1213.93 1348.87 1207.13 1357.4 1202.33C1365.93 1197.4 1376 1194.93 1387.6 1194.93ZM1377 1239.93C1373.27 1239.93 1370.47 1241.13 1368.6 1243.53C1366.6 1245.93 1365.6 1248.93 1365.6 1252.53C1365.6 1260.4 1369.4 1265 1377 1266.33V1239.93ZM1388.6 1186.89C1376.73 1186.89 1366.47 1184.89 1357.8 1180.89C1349 1176.76 1342.33 1171.16 1337.8 1164.09C1333.13 1157.03 1330.8 1149.09 1330.8 1140.29C1330.8 1132.96 1332.33 1126.63 1335.4 1121.29C1338.33 1115.96 1342.4 1111.89 1347.6 1109.09H1332.2V1064.89H1445V1109.09H1429.6C1434.8 1111.89 1438.93 1115.96 1442 1121.29C1444.93 1126.63 1446.4 1132.96 1446.4 1140.29C1446.4 1149.09 1444.13 1157.03 1439.6 1164.09C1434.93 1171.16 1428.27 1176.76 1419.6 1180.89C1410.8 1184.89 1400.47 1186.89 1388.6 1186.89ZM1388.6 1109.09C1382.6 1109.09 1377.93 1110.63 1374.6 1113.69C1371.27 1116.76 1369.6 1120.69 1369.6 1125.49C1369.6 1130.29 1371.27 1134.23 1374.6 1137.29C1377.93 1140.36 1382.6 1141.89 1388.6 1141.89C1394.6 1141.89 1399.27 1140.36 1402.6 1137.29C1405.93 1134.23 1407.6 1130.29 1407.6 1125.49C1407.6 1120.69 1405.93 1116.76 1402.6 1113.69C1399.27 1110.63 1394.6 1109.09 1388.6 1109.09ZM1353 1000.56C1346.47 996.022 1341.27 990.488 1337.4 983.955C1333.4 977.422 1331.4 970.622 1331.4 963.555H1378.8V976.155C1378.8 984.555 1380.27 990.755 1383.2 994.755C1386.13 998.622 1391.33 1000.56 1398.8 1000.56H1445V1044.96H1332.2V1000.56H1353ZM1331.4 872.596C1331.4 859.662 1335.73 849.596 1344.4 842.396C1353.07 835.062 1364.8 831.396 1379.6 831.396H1445V875.596H1385.2C1379.87 875.596 1375.67 877.062 1372.6 879.996C1369.4 882.796 1367.8 886.596 1367.8 891.396C1367.8 896.329 1369.4 900.196 1372.6 902.996C1375.67 905.796 1379.87 907.196 1385.2 907.196H1445V951.596H1332.2V907.196H1349.4C1344.07 903.729 1339.73 899.129 1336.4 893.396C1333.07 887.529 1331.4 880.596 1331.4 872.596ZM1303.4 678.158H1338.6V733.758H1358.2V693.758L1391.6 693.758V733.758H1445V778.158L1303.4 778.158V678.158ZM1388.6 669.119C1376.73 669.119 1366.47 667.119 1357.8 663.119C1349 658.986 1342.33 653.386 1337.8 646.319C1333.13 639.252 1330.8 631.319 1330.8 622.519C1330.8 615.186 1332.33 608.852 1335.4 603.519C1338.33 598.186 1342.4 594.119 1347.6 591.319H1332.2V547.119L1445 547.119V591.319H1429.6C1434.8 594.119 1438.93 598.186 1442 603.519C1444.93 608.852 1446.4 615.186 1446.4 622.519C1446.4 631.319 1444.13 639.252 1439.6 646.319C1434.93 653.386 1428.27 658.986 1419.6 663.119C1410.8 667.119 1400.47 669.119 1388.6 669.119ZM1388.6 591.319C1382.6 591.319 1377.93 592.852 1374.6 595.919C1371.27 598.986 1369.6 602.919 1369.6 607.719C1369.6 612.519 1371.27 616.452 1374.6 619.519C1377.93 622.586 1382.6 624.119 1388.6 624.119C1394.6 624.119 1399.27 622.586 1402.6 619.519C1405.93 616.452 1407.6 612.519 1407.6 607.719C1407.6 602.919 1405.93 598.986 1402.6 595.919C1399.27 592.852 1394.6 591.319 1388.6 591.319ZM1446.4 476.982C1446.4 487.648 1444.67 497.115 1441.2 505.382C1437.73 513.515 1432.93 519.982 1426.8 524.782C1420.67 529.582 1413.73 532.315 1406 532.982V490.382C1409.33 489.848 1411.8 488.448 1413.4 486.182C1415 483.782 1415.8 480.782 1415.8 477.182C1415.8 474.915 1415.33 473.115 1414.4 471.782C1413.33 470.448 1412.07 469.782 1410.6 469.782C1408.07 469.782 1406.27 471.182 1405.2 473.982C1404.13 476.782 1402.93 481.515 1401.6 488.182C1400 496.315 1398.27 503.048 1396.4 508.382C1394.53 513.582 1391.33 518.182 1386.8 522.182C1382.27 526.048 1376 527.982 1368 527.982C1361.07 527.982 1354.8 526.182 1349.2 522.582C1343.47 518.848 1339 513.382 1335.8 506.182C1332.47 498.982 1330.8 490.248 1330.8 479.982C1330.8 464.782 1334.53 452.915 1342 444.382C1349.47 435.715 1359.2 430.515 1371.2 428.782V468.182C1368.13 468.848 1365.8 470.248 1364.2 472.382C1362.47 474.515 1361.6 477.382 1361.6 480.982C1361.6 483.248 1362.07 484.982 1363 486.182C1363.8 487.382 1365.07 487.982 1366.8 487.982C1369.07 487.982 1370.8 486.582 1372 483.782C1373.07 480.982 1374.2 476.515 1375.4 470.382C1377 462.248 1378.8 455.382 1380.8 449.782C1382.8 444.182 1386.27 439.315 1391.2 435.182C1396 431.048 1402.67 428.982 1411.2 428.982C1417.87 428.982 1423.87 430.915 1429.2 434.782C1434.53 438.648 1438.73 444.248 1441.8 451.582C1444.87 458.782 1446.4 467.248 1446.4 476.982ZM1407.2 341.161H1445V357.961C1445 388.895 1429.6 404.361 1398.8 404.361L1369.2 404.361V418.361H1332.2V404.361H1305V359.961H1332.2V341.561H1369.2V359.961H1399.6C1402.27 359.961 1404.2 359.361 1405.4 358.161C1406.6 356.828 1407.2 354.695 1407.2 351.761V341.161ZM1387.6 215.052C1390.67 215.052 1393.6 215.252 1396.4 215.652V287.052C1406.13 286.385 1411 282.319 1411 274.852C1411 270.052 1408.8 266.585 1404.4 264.452V217.452C1412.4 219.052 1419.6 222.452 1426 227.652C1432.27 232.719 1437.27 239.185 1441 247.052C1444.6 254.785 1446.4 263.319 1446.4 272.652C1446.4 283.852 1444.07 293.852 1439.4 302.652C1434.73 311.319 1428.07 318.119 1419.4 323.052C1410.6 327.852 1400.33 330.252 1388.6 330.252C1376.87 330.252 1366.67 327.852 1358 323.052C1349.2 318.119 1342.47 311.319 1337.8 302.652C1333.13 293.852 1330.8 283.852 1330.8 272.652C1330.8 261.452 1333.13 251.519 1337.8 242.852C1342.33 234.052 1348.87 227.252 1357.4 222.452C1365.93 217.519 1376 215.052 1387.6 215.052ZM1377 260.052C1373.27 260.052 1370.47 261.252 1368.6 263.652C1366.6 266.052 1365.6 269.052 1365.6 272.652C1365.6 280.519 1369.4 285.119 1377 286.452V260.052ZM1353 156.61C1346.47 152.076 1341.27 146.543 1337.4 140.01C1333.4 133.476 1331.4 126.676 1331.4 119.61H1378.8V132.21C1378.8 140.61 1380.27 146.81 1383.2 150.81C1386.13 154.676 1391.33 156.61 1398.8 156.61H1445L1445 201.01H1332.2L1332.2 156.61H1353ZM1446.6 51.666C1446.6 59.3993 1444.53 65.5993 1440.4 70.266C1436.27 74.9327 1431.07 77.266 1424.8 77.266C1418.4 77.266 1413.13 74.9327 1409 70.266C1404.73 65.5993 1402.6 59.3993 1402.6 51.666C1402.6 44.066 1404.73 37.9327 1409 33.266C1413.13 28.5993 1418.4 26.266 1424.8 26.266C1431.07 26.266 1436.27 28.5993 1440.4 33.266C1444.53 37.9327 1446.6 44.066 1446.6 51.666ZM1723.6 1314.51V1361.71L1745 1368.71V1415.31L1603.4 1363.51V1312.31L1745 1260.71V1307.51L1723.6 1314.51ZM1690.2 1325.31L1650.8 1338.11L1690.2 1350.91V1325.31ZM1630.8 1210.02C1630.8 1202.69 1632.33 1196.35 1635.4 1191.02C1638.33 1185.69 1642.4 1181.62 1647.6 1178.82H1632.2V1134.62H1743C1753.53 1134.62 1763.13 1136.55 1771.8 1140.42C1780.47 1144.29 1787.4 1150.55 1792.6 1159.22C1797.8 1167.75 1800.4 1178.75 1800.4 1192.22C1800.4 1210.35 1796.13 1224.75 1787.6 1235.42C1779.2 1245.95 1767.73 1251.95 1753.2 1253.42V1209.82C1759.07 1208.62 1762 1203.82 1762 1195.42C1762 1190.22 1760.67 1186.15 1758 1183.22C1755.33 1180.29 1750.33 1178.82 1743 1178.82H1729.6C1734.8 1181.62 1738.93 1185.69 1742 1191.02C1744.93 1196.35 1746.4 1202.69 1746.4 1210.02C1746.4 1218.82 1744.13 1226.75 1739.6 1233.82C1734.93 1240.89 1728.27 1246.49 1719.6 1250.62C1710.8 1254.62 1700.47 1256.62 1688.6 1256.62C1676.73 1256.62 1666.47 1254.62 1657.8 1250.62C1649 1246.49 1642.33 1240.89 1637.8 1233.82C1633.13 1226.75 1630.8 1218.82 1630.8 1210.02ZM1688.6 1178.82C1682.6 1178.82 1677.93 1180.35 1674.6 1183.42C1671.27 1186.49 1669.6 1190.42 1669.6 1195.22C1669.6 1200.02 1671.27 1203.95 1674.6 1207.02C1677.93 1210.09 1682.6 1211.62 1688.6 1211.62C1694.6 1211.62 1699.27 1210.09 1702.6 1207.02C1705.93 1203.95 1707.6 1200.02 1707.6 1195.22C1707.6 1190.42 1705.93 1186.49 1702.6 1183.42C1699.27 1180.35 1694.6 1178.82 1688.6 1178.82ZM1603.4 1003.48H1638.6V1041.08H1745V1085.48H1638.6V1122.68H1603.4V1003.48ZM1687.6 882.239C1690.67 882.239 1693.6 882.439 1696.4 882.839L1696.4 954.239C1706.13 953.573 1711 949.506 1711 942.039C1711 937.239 1708.8 933.773 1704.4 931.639L1704.4 884.639C1712.4 886.239 1719.6 889.639 1726 894.839C1732.27 899.906 1737.27 906.373 1741 914.239C1744.6 921.973 1746.4 930.506 1746.4 939.839C1746.4 951.039 1744.07 961.039 1739.4 969.839C1734.73 978.506 1728.07 985.306 1719.4 990.239C1710.6 995.039 1700.33 997.439 1688.6 997.439C1676.87 997.439 1666.67 995.039 1658 990.239C1649.2 985.306 1642.47 978.506 1637.8 969.839C1633.13 961.039 1630.8 951.039 1630.8 939.839C1630.8 928.639 1633.13 918.706 1637.8 910.039C1642.33 901.239 1648.87 894.439 1657.4 889.639C1665.93 884.706 1676 882.239 1687.6 882.239ZM1677 927.239C1673.27 927.239 1670.47 928.439 1668.6 930.839C1666.6 933.239 1665.6 936.239 1665.6 939.839C1665.6 947.706 1669.4 952.306 1677 953.639V927.239ZM1688.6 874.197C1676.73 874.197 1666.47 872.197 1657.8 868.197C1649 864.064 1642.33 858.464 1637.8 851.397C1633.13 844.331 1630.8 836.397 1630.8 827.597C1630.8 820.264 1632.33 813.931 1635.4 808.597C1638.33 803.264 1642.4 799.197 1647.6 796.397H1632.2V752.197H1745V796.397H1729.6C1734.8 799.197 1738.93 803.264 1742 808.597C1744.93 813.931 1746.4 820.264 1746.4 827.597C1746.4 836.397 1744.13 844.331 1739.6 851.397C1734.93 858.464 1728.27 864.064 1719.6 868.197C1710.8 872.197 1700.47 874.197 1688.6 874.197ZM1688.6 796.397C1682.6 796.397 1677.93 797.931 1674.6 800.997C1671.27 804.064 1669.6 807.997 1669.6 812.797C1669.6 817.597 1671.27 821.531 1674.6 824.597C1677.93 827.664 1682.6 829.197 1688.6 829.197C1694.6 829.197 1699.27 827.664 1702.6 824.597C1705.93 821.531 1707.6 817.597 1707.6 812.797C1707.6 807.997 1705.93 804.064 1702.6 800.997C1699.27 797.931 1694.6 796.397 1688.6 796.397ZM1688.6 738.26C1676.87 738.26 1666.67 735.86 1658 731.06C1649.2 726.126 1642.47 719.326 1637.8 710.66C1633.13 701.86 1630.8 691.86 1630.8 680.66C1630.8 665.993 1634.93 653.66 1643.2 643.66C1651.47 633.526 1662.93 627.126 1677.6 624.46V671.46C1671.73 673.193 1668.8 676.593 1668.8 681.66C1668.8 685.26 1670.47 688.126 1673.8 690.26C1677.13 692.26 1682.07 693.26 1688.6 693.26C1695.13 693.26 1700.07 692.26 1703.4 690.26C1706.73 688.126 1708.4 685.26 1708.4 681.66C1708.4 676.593 1705.47 673.193 1699.6 671.46V624.46C1714.27 627.126 1725.73 633.526 1734 643.66C1742.27 653.66 1746.4 665.993 1746.4 680.66C1746.4 691.86 1744.07 701.86 1739.4 710.66C1734.73 719.326 1728.07 726.126 1719.4 731.06C1710.6 735.86 1700.33 738.26 1688.6 738.26ZM1631.4 531.385C1631.4 518.451 1635.73 508.385 1644.4 501.185C1653.07 493.851 1664.8 490.185 1679.6 490.185H1745V534.385H1685.2C1679.87 534.385 1675.67 535.851 1672.6 538.785C1669.4 541.585 1667.8 545.385 1667.8 550.185C1667.8 555.118 1669.4 558.985 1672.6 561.785C1675.67 564.585 1679.87 565.985 1685.2 565.985H1745V610.385H1597V565.985H1649.4C1644.07 562.518 1639.73 557.918 1636.4 552.185C1633.07 546.318 1631.4 539.385 1631.4 531.385Z" fill="#DCE033"/>
<path d="M-143.6 1163.91L-143.6 1121.11H-110L-110 1208.31H-251.6V1163.91H-143.6ZM-167.4 997.935C-164.333 997.935 -161.4 998.135 -158.6 998.535L-158.6 1069.93C-148.867 1069.27 -144 1065.2 -144 1057.73C-144 1052.93 -146.2 1049.47 -150.6 1047.33L-150.6 1000.33C-142.6 1001.93 -135.4 1005.33 -129 1010.53C-122.733 1015.6 -117.733 1022.07 -114 1029.93C-110.4 1037.67 -108.6 1046.2 -108.6 1055.53C-108.6 1066.73 -110.933 1076.73 -115.6 1085.53C-120.267 1094.2 -126.933 1101 -135.6 1105.93C-144.4 1110.73 -154.667 1113.13 -166.4 1113.13C-178.133 1113.13 -188.333 1110.73 -197 1105.93C-205.8 1101 -212.533 1094.2 -217.2 1085.53C-221.867 1076.73 -224.2 1066.73 -224.2 1055.53C-224.2 1044.33 -221.867 1034.4 -217.2 1025.73C-212.667 1016.93 -206.133 1010.13 -197.6 1005.33C-189.067 1000.4 -179 997.935 -167.4 997.935ZM-178 1042.93C-181.733 1042.93 -184.533 1044.13 -186.4 1046.53C-188.4 1048.93 -189.4 1051.93 -189.4 1055.53C-189.4 1063.4 -185.6 1068 -178 1069.33L-178 1042.93ZM-166.4 989.893C-178.267 989.893 -188.533 987.893 -197.2 983.893C-206 979.759 -212.667 974.159 -217.2 967.093C-221.867 960.026 -224.2 952.093 -224.2 943.293C-224.2 935.959 -222.667 929.626 -219.6 924.293C-216.667 918.959 -212.6 914.893 -207.4 912.093H-222.8L-222.8 867.893H-110L-110 912.093H-125.4C-120.2 914.893 -116.067 918.959 -113 924.293C-110.067 929.626 -108.6 935.959 -108.6 943.293C-108.6 952.093 -110.867 960.026 -115.4 967.093C-120.067 974.159 -126.733 979.759 -135.4 983.893C-144.2 987.893 -154.533 989.893 -166.4 989.893ZM-166.4 912.093C-172.4 912.093 -177.067 913.626 -180.4 916.693C-183.733 919.759 -185.4 923.693 -185.4 928.493C-185.4 933.293 -183.733 937.226 -180.4 940.293C-177.067 943.359 -172.4 944.893 -166.4 944.893C-160.4 944.893 -155.733 943.359 -152.4 940.293C-149.067 937.226 -147.4 933.293 -147.4 928.493C-147.4 923.693 -149.067 919.759 -152.4 916.693C-155.733 913.626 -160.4 912.093 -166.4 912.093ZM-202 803.555C-208.533 799.022 -213.733 793.488 -217.6 786.955C-221.6 780.422 -223.6 773.622 -223.6 766.555H-176.2V779.155C-176.2 787.555 -174.733 793.755 -171.8 797.755C-168.867 801.622 -163.667 803.555 -156.2 803.555H-110V847.955H-222.8L-222.8 803.555H-202ZM-223.6 675.596C-223.6 662.662 -219.267 652.596 -210.6 645.396C-201.933 638.062 -190.2 634.396 -175.4 634.396H-110L-110 678.596H-169.8C-175.133 678.596 -179.333 680.062 -182.4 682.996C-185.6 685.796 -187.2 689.596 -187.2 694.396C-187.2 699.329 -185.6 703.196 -182.4 705.996C-179.333 708.796 -175.133 710.196 -169.8 710.196H-110V754.596H-222.8V710.196H-205.6C-210.933 706.729 -215.267 702.129 -218.6 696.396C-221.933 690.529 -223.6 683.596 -223.6 675.596ZM121.4 1152.91C121.4 1169.84 117.467 1183.84 109.6 1194.91C101.6 1205.84 89.9333 1211.77 74.6 1212.71V1165.51C82.7333 1164.84 86.8 1161.24 86.8 1154.71C86.8 1152.31 86.2667 1150.31 85.2 1148.71C84 1146.97 82.2 1146.11 79.8 1146.11C76.4667 1146.11 73.8 1147.91 71.8 1151.51C69.6667 1155.11 67.2667 1160.71 64.6 1168.31C61.4 1177.37 58.2667 1184.91 55.2 1190.91C52.1333 1196.77 47.6667 1201.84 41.8 1206.11C35.9333 1210.37 28.4 1212.44 19.2 1212.31C10 1212.31 2.19999 1209.97 -4.20001 1205.31C-10.7333 1200.51 -15.6667 1194.04 -19 1185.91C-22.3333 1177.64 -24 1168.37 -24 1158.11C-24 1140.77 -20 1127.04 -12 1116.91C-4 1106.64 7.26666 1101.24 21.8 1100.71V1148.51C17.8 1148.64 14.9333 1149.64 13.2 1151.51C11.4667 1153.37 10.6 1155.64 10.6 1158.31C10.6 1160.17 11.2667 1161.71 12.6 1162.91C13.8 1164.11 15.5333 1164.71 17.8 1164.71C21 1164.71 23.6667 1162.97 25.8 1159.51C27.8 1155.91 30.2667 1150.24 33.2 1142.51C36.5333 1133.57 39.7333 1126.24 42.8 1120.51C45.8667 1114.64 50.1333 1109.57 55.6 1105.31C61.0667 1101.04 67.9333 1098.91 76.2 1098.91C84.8667 1098.91 92.6667 1101.04 99.6 1105.31C106.4 1109.57 111.733 1115.77 115.6 1123.91C119.467 1132.04 121.4 1141.71 121.4 1152.91ZM6.4 932.707C6.4 918.307 10.7333 907.173 19.4 899.307C28.0667 891.307 39.8 887.307 54.6 887.307L120 887.307V931.507L60.2 931.507C55.4 931.507 51.6667 932.973 49 935.907C46.2 938.707 44.8 942.507 44.8 947.307C44.8 952.24 46.2 956.107 49 958.907C51.6667 961.707 55.4 963.107 60.2 963.107H120V1007.31H60.2C55.4 1007.31 51.6667 1008.77 49 1011.71C46.2 1014.51 44.8 1018.31 44.8 1023.11C44.8 1028.04 46.2 1031.91 49 1034.71C51.6667 1037.51 55.4 1038.91 60.2 1038.91H120V1083.31H7.2V1038.91H22.4C17.6 1035.71 13.7333 1031.37 10.8 1025.91C7.86666 1020.31 6.4 1013.77 6.4 1006.31C6.4 998.173 8.2 990.973 11.8 984.707C15.2667 978.44 20.2 973.44 26.6 969.707C20.7333 965.573 15.9333 960.307 12.2 953.907C8.33333 947.507 6.4 940.44 6.4 932.707ZM63.6 874.072C51.7333 874.072 41.4667 872.072 32.8 868.072C24 863.939 17.3333 858.339 12.8 851.272C8.13333 844.206 5.79999 836.272 5.79999 827.472C5.79999 820.139 7.33333 813.806 10.4 808.472C13.3333 803.139 17.4 799.072 22.6 796.272H7.2V752.072L120 752.072V796.272H104.6C109.8 799.072 113.933 803.139 117 808.472C119.933 813.806 121.4 820.139 121.4 827.472C121.4 836.272 119.133 844.206 114.6 851.272C109.933 858.339 103.267 863.939 94.6 868.072C85.8 872.072 75.4667 874.072 63.6 874.072ZM63.6 796.272C57.6 796.272 52.9333 797.806 49.6 800.872C46.2667 803.939 44.6 807.872 44.6 812.672C44.6 817.472 46.2667 821.406 49.6 824.472C52.9333 827.539 57.6 829.072 63.6 829.072C69.6 829.072 74.2667 827.539 77.6 824.472C80.9333 821.406 82.6 817.472 82.6 812.672C82.6 807.872 80.9333 803.939 77.6 800.872C74.2667 797.806 69.6 796.272 63.6 796.272ZM28 687.735C21.4667 683.201 16.2667 677.668 12.4 671.135C8.39999 664.601 6.4 657.801 6.4 650.735H53.8V663.335C53.8 671.735 55.2667 677.935 58.2 681.935C61.1333 685.801 66.3333 687.735 73.8 687.735H120V732.135L7.2 732.135V687.735H28ZM82.2 568.575H120V585.375C120 616.309 104.6 631.775 73.8 631.775H44.2V645.775H7.2V631.775H-20L-20 587.375H7.2V568.975H44.2V587.375H74.6C77.2667 587.375 79.2 586.775 80.4 585.575C81.6 584.242 82.2 582.109 82.2 579.175V568.575ZM62.6 442.466C65.6667 442.466 68.6 442.666 71.4 443.066V514.466C81.1333 513.799 86 509.733 86 502.266C86 497.466 83.8 493.999 79.4 491.866V444.866C87.4 446.466 94.6 449.866 101 455.066C107.267 460.133 112.267 466.599 116 474.466C119.6 482.199 121.4 490.733 121.4 500.066C121.4 511.266 119.067 521.266 114.4 530.066C109.733 538.733 103.067 545.533 94.4 550.466C85.6 555.266 75.3333 557.666 63.6 557.666C51.8667 557.666 41.6667 555.266 33 550.466C24.2 545.533 17.4667 538.733 12.8 530.066C8.13333 521.266 5.79999 511.266 5.79999 500.066C5.79999 488.866 8.13333 478.933 12.8 470.266C17.3333 461.466 23.8667 454.666 32.4 449.866C40.9333 444.933 51 442.466 62.6 442.466ZM52 487.466C48.2667 487.466 45.4667 488.666 43.6 491.066C41.6 493.466 40.6 496.466 40.6 500.066C40.6 507.933 44.4 512.533 52 513.866V487.466ZM28 384.024C21.4667 379.49 16.2667 373.957 12.4 367.424C8.39999 360.89 6.4 354.09 6.4 347.024H53.8V359.624C53.8 368.024 55.2667 374.224 58.2 378.224C61.1333 382.09 66.3333 384.024 73.8 384.024H120V428.424H7.2V384.024H28ZM121.6 279.08C121.6 286.813 119.533 293.013 115.4 297.68C111.267 302.347 106.067 304.68 99.8 304.68C93.4 304.68 88.1333 302.347 84 297.68C79.7333 293.013 77.6 286.813 77.6 279.08C77.6 271.48 79.7333 265.347 84 260.68C88.1333 256.013 93.4 253.68 99.8 253.68C106.067 253.68 111.267 256.013 115.4 260.68C119.533 265.347 121.6 271.48 121.6 279.08ZM316.4 1163.91V1121.11H350V1208.31L208.4 1208.31V1163.91L316.4 1163.91ZM292.6 997.935C295.667 997.935 298.6 998.135 301.4 998.535V1069.93C311.133 1069.27 316 1065.2 316 1057.73C316 1052.93 313.8 1049.47 309.4 1047.33V1000.33C317.4 1001.93 324.6 1005.33 331 1010.53C337.267 1015.6 342.267 1022.07 346 1029.93C349.6 1037.67 351.4 1046.2 351.4 1055.53C351.4 1066.73 349.067 1076.73 344.4 1085.53C339.733 1094.2 333.067 1101 324.4 1105.93C315.6 1110.73 305.333 1113.13 293.6 1113.13C281.867 1113.13 271.667 1110.73 263 1105.93C254.2 1101 247.467 1094.2 242.8 1085.53C238.133 1076.73 235.8 1066.73 235.8 1055.53C235.8 1044.33 238.133 1034.4 242.8 1025.73C247.333 1016.93 253.867 1010.13 262.4 1005.33C270.933 1000.4 281 997.935 292.6 997.935ZM282 1042.93C278.267 1042.93 275.467 1044.13 273.6 1046.53C271.6 1048.93 270.6 1051.93 270.6 1055.53C270.6 1063.4 274.4 1068 282 1069.33V1042.93ZM293.6 989.893C281.733 989.893 271.467 987.893 262.8 983.893C254 979.759 247.333 974.159 242.8 967.093C238.133 960.026 235.8 952.093 235.8 943.293C235.8 935.959 237.333 929.626 240.4 924.293C243.333 918.959 247.4 914.893 252.6 912.093H237.2V867.893L350 867.893V912.093H334.6C339.8 914.893 343.933 918.959 347 924.293C349.933 929.626 351.4 935.959 351.4 943.293C351.4 952.093 349.133 960.026 344.6 967.093C339.933 974.159 333.267 979.759 324.6 983.893C315.8 987.893 305.467 989.893 293.6 989.893ZM293.6 912.093C287.6 912.093 282.933 913.626 279.6 916.693C276.267 919.759 274.6 923.693 274.6 928.493C274.6 933.293 276.267 937.226 279.6 940.293C282.933 943.359 287.6 944.893 293.6 944.893C299.6 944.893 304.267 943.359 307.6 940.293C310.933 937.226 312.6 933.293 312.6 928.493C312.6 923.693 310.933 919.759 307.6 916.693C304.267 913.626 299.6 912.093 293.6 912.093ZM258 803.555C251.467 799.022 246.267 793.488 242.4 786.955C238.4 780.422 236.4 773.622 236.4 766.555H283.8V779.155C283.8 787.555 285.267 793.755 288.2 797.755C291.133 801.622 296.333 803.555 303.8 803.555L350 803.555V847.955L237.2 847.955V803.555H258ZM236.4 675.596C236.4 662.662 240.733 652.596 249.4 645.396C258.067 638.062 269.8 634.396 284.6 634.396H350V678.596H290.2C284.867 678.596 280.667 680.062 277.6 682.996C274.4 685.796 272.8 689.596 272.8 694.396C272.8 699.329 274.4 703.196 277.6 705.996C280.667 708.796 284.867 710.196 290.2 710.196L350 710.196V754.596L237.2 754.596V710.196H254.4C249.067 706.729 244.733 702.129 241.4 696.396C238.067 690.529 236.4 683.596 236.4 675.596ZM208.4 481.158H243.6V536.758H263.2V496.758H296.6V536.758H350V581.158H208.4V481.158ZM293.6 472.119C281.733 472.119 271.467 470.119 262.8 466.119C254 461.986 247.333 456.386 242.8 449.319C238.133 442.252 235.8 434.319 235.8 425.519C235.8 418.186 237.333 411.852 240.4 406.519C243.333 401.186 247.4 397.119 252.6 394.319H237.2V350.119H350V394.319H334.6C339.8 397.119 343.933 401.186 347 406.519C349.933 411.852 351.4 418.186 351.4 425.519C351.4 434.319 349.133 442.252 344.6 449.319C339.933 456.386 333.267 461.986 324.6 466.119C315.8 470.119 305.467 472.119 293.6 472.119ZM293.6 394.319C287.6 394.319 282.933 395.852 279.6 398.919C276.267 401.986 274.6 405.919 274.6 410.719C274.6 415.519 276.267 419.452 279.6 422.519C282.933 425.586 287.6 427.119 293.6 427.119C299.6 427.119 304.267 425.586 307.6 422.519C310.933 419.452 312.6 415.519 312.6 410.719C312.6 405.919 310.933 401.986 307.6 398.919C304.267 395.852 299.6 394.319 293.6 394.319ZM351.4 279.982C351.4 290.648 349.667 300.115 346.2 308.382C342.733 316.515 337.933 322.982 331.8 327.782C325.667 332.582 318.733 335.315 311 335.982V293.382C314.333 292.848 316.8 291.448 318.4 289.182C320 286.782 320.8 283.782 320.8 280.182C320.8 277.915 320.333 276.115 319.4 274.782C318.333 273.448 317.067 272.782 315.6 272.782C313.067 272.782 311.267 274.182 310.2 276.982C309.133 279.782 307.933 284.515 306.6 291.182C305 299.315 303.267 306.048 301.4 311.382C299.533 316.582 296.333 321.182 291.8 325.182C287.267 329.048 281 330.982 273 330.982C266.067 330.982 259.8 329.182 254.2 325.582C248.467 321.848 244 316.382 240.8 309.182C237.467 301.982 235.8 293.248 235.8 282.982C235.8 267.782 239.533 255.915 247 247.382C254.467 238.715 264.2 233.515 276.2 231.782V271.182C273.133 271.848 270.8 273.248 269.2 275.382C267.467 277.515 266.6 280.382 266.6 283.982C266.6 286.248 267.067 287.982 268 289.182C268.8 290.382 270.067 290.982 271.8 290.982C274.067 290.982 275.8 289.582 277 286.782C278.067 283.982 279.2 279.515 280.4 273.382C282 265.248 283.8 258.382 285.8 252.782C287.8 247.182 291.267 242.315 296.2 238.182C301 234.048 307.667 231.982 316.2 231.982C322.867 231.982 328.867 233.915 334.2 237.782C339.533 241.648 343.733 247.248 346.8 254.582C349.867 261.782 351.4 270.248 351.4 279.982ZM312.2 144.161H350V160.961C350 191.895 334.6 207.361 303.8 207.361H274.2V221.361H237.2V207.361H210V162.961H237.2V144.561H274.2V162.961H304.6C307.267 162.961 309.2 162.361 310.4 161.161C311.6 159.828 312.2 157.695 312.2 154.761V144.161ZM292.6 18.0519C295.667 18.0519 298.6 18.2519 301.4 18.6519V90.0519C311.133 89.3853 316 85.3186 316 77.8519C316 73.052 313.8 69.5853 309.4 67.452V20.4519C317.4 22.0519 324.6 25.4519 331 30.6519C337.267 35.7186 342.267 42.1853 346 50.0519C349.6 57.7853 351.4 66.3186 351.4 75.6519C351.4 86.852 349.067 96.852 344.4 105.652C339.733 114.319 333.067 121.119 324.4 126.052C315.6 130.852 305.333 133.252 293.6 133.252C281.867 133.252 271.667 130.852 263 126.052C254.2 121.119 247.467 114.319 242.8 105.652C238.133 96.852 235.8 86.852 235.8 75.6519C235.8 64.4519 238.133 54.5186 242.8 45.8519C247.333 37.052 253.867 30.252 262.4 25.452C270.933 20.5186 281 18.0519 292.6 18.0519ZM282 63.0519C278.267 63.0519 275.467 64.2519 273.6 66.652C271.6 69.052 270.6 72.052 270.6 75.6519C270.6 83.5186 274.4 88.1186 282 89.452V63.0519ZM258 -40.3902C251.467 -44.9236 246.267 -50.4569 242.4 -56.9902C238.4 -63.5236 236.4 -70.3236 236.4 -77.3902H283.8V-64.7902C283.8 -56.3902 285.267 -50.1902 288.2 -46.1902C291.133 -42.3236 296.333 -40.3902 303.8 -40.3902H350L350 4.00977H237.2L237.2 -40.3902H258ZM351.6 -145.334C351.6 -137.601 349.533 -131.401 345.4 -126.734C341.267 -122.067 336.067 -119.734 329.8 -119.734C323.4 -119.734 318.133 -122.067 314 -126.734C309.733 -131.401 307.6 -137.601 307.6 -145.334C307.6 -152.934 309.733 -159.067 314 -163.734C318.133 -168.401 323.4 -170.734 329.8 -170.734C336.067 -170.734 341.267 -168.401 345.4 -163.734C349.533 -159.067 351.6 -152.934 351.6 -145.334ZM558.6 1117.51V1164.71L580 1171.71V1218.31L438.4 1166.51V1115.31L580 1063.71V1110.51L558.6 1117.51ZM525.2 1128.31L485.8 1141.11L525.2 1153.91V1128.31ZM465.8 1013.02C465.8 1005.69 467.333 999.352 470.4 994.019C473.333 988.686 477.4 984.619 482.6 981.819H467.2L467.2 937.619H578C588.533 937.619 598.133 939.552 606.8 943.419C615.467 947.286 622.4 953.552 627.6 962.219C632.8 970.752 635.4 981.752 635.4 995.219C635.4 1013.35 631.133 1027.75 622.6 1038.42C614.2 1048.95 602.733 1054.95 588.2 1056.42V1012.82C594.067 1011.62 597 1006.82 597 998.419C597 993.219 595.667 989.152 593 986.219C590.333 983.286 585.333 981.819 578 981.819H564.6C569.8 984.619 573.933 988.686 577 994.019C579.933 999.352 581.4 1005.69 581.4 1013.02C581.4 1021.82 579.133 1029.75 574.6 1036.82C569.933 1043.89 563.267 1049.49 554.6 1053.62C545.8 1057.62 535.467 1059.62 523.6 1059.62C511.733 1059.62 501.467 1057.62 492.8 1053.62C484 1049.49 477.333 1043.89 472.8 1036.82C468.133 1029.75 465.8 1021.82 465.8 1013.02ZM523.6 981.819C517.6 981.819 512.933 983.352 509.6 986.419C506.267 989.486 504.6 993.419 504.6 998.219C504.6 1003.02 506.267 1006.95 509.6 1010.02C512.933 1013.09 517.6 1014.62 523.6 1014.62C529.6 1014.62 534.267 1013.09 537.6 1010.02C540.933 1006.95 542.6 1003.02 542.6 998.219C542.6 993.419 540.933 989.486 537.6 986.419C534.267 983.352 529.6 981.819 523.6 981.819ZM438.4 806.482H473.6V844.082H580V888.482H473.6V925.682H438.4V806.482ZM522.6 685.239C525.667 685.239 528.6 685.439 531.4 685.839V757.239C541.133 756.573 546 752.506 546 745.039C546 740.239 543.8 736.773 539.4 734.639V687.639C547.4 689.239 554.6 692.639 561 697.839C567.267 702.906 572.267 709.373 576 717.239C579.6 724.973 581.4 733.506 581.4 742.839C581.4 754.039 579.067 764.039 574.4 772.839C569.733 781.506 563.067 788.306 554.4 793.239C545.6 798.039 535.333 800.439 523.6 800.439C511.867 800.439 501.667 798.039 493 793.239C484.2 788.306 477.467 781.506 472.8 772.839C468.133 764.039 465.8 754.039 465.8 742.839C465.8 731.639 468.133 721.706 472.8 713.039C477.333 704.239 483.867 697.439 492.4 692.639C500.933 687.706 511 685.239 522.6 685.239ZM512 730.239C508.267 730.239 505.467 731.439 503.6 733.839C501.6 736.239 500.6 739.239 500.6 742.839C500.6 750.706 504.4 755.306 512 756.639V730.239ZM523.6 677.197C511.733 677.197 501.467 675.197 492.8 671.197C484 667.064 477.333 661.464 472.8 654.397C468.133 647.331 465.8 639.397 465.8 630.597C465.8 623.264 467.333 616.931 470.4 611.597C473.333 606.264 477.4 602.197 482.6 599.397H467.2V555.197H580V599.397H564.6C569.8 602.197 573.933 606.264 577 611.597C579.933 616.931 581.4 623.264 581.4 630.597C581.4 639.397 579.133 647.331 574.6 654.397C569.933 661.464 563.267 667.064 554.6 671.197C545.8 675.197 535.467 677.197 523.6 677.197ZM523.6 599.397C517.6 599.397 512.933 600.931 509.6 603.997C506.267 607.064 504.6 610.997 504.6 615.797C504.6 620.597 506.267 624.531 509.6 627.597C512.933 630.664 517.6 632.197 523.6 632.197C529.6 632.197 534.267 630.664 537.6 627.597C540.933 624.531 542.6 620.597 542.6 615.797C542.6 610.997 540.933 607.064 537.6 603.997C534.267 600.931 529.6 599.397 523.6 599.397ZM523.6 541.26C511.867 541.26 501.667 538.86 493 534.06C484.2 529.126 477.467 522.326 472.8 513.66C468.133 504.86 465.8 494.86 465.8 483.66C465.8 468.993 469.933 456.66 478.2 446.66C486.467 436.526 497.933 430.126 512.6 427.46L512.6 474.46C506.733 476.193 503.8 479.593 503.8 484.66C503.8 488.26 505.467 491.126 508.8 493.26C512.133 495.26 517.067 496.26 523.6 496.26C530.133 496.26 535.067 495.26 538.4 493.26C541.733 491.126 543.4 488.26 543.4 484.66C543.4 479.593 540.467 476.193 534.6 474.46L534.6 427.46C549.267 430.126 560.733 436.526 569 446.66C577.267 456.66 581.4 468.993 581.4 483.66C581.4 494.86 579.067 504.86 574.4 513.66C569.733 522.326 563.067 529.126 554.4 534.06C545.6 538.86 535.333 541.26 523.6 541.26ZM466.4 334.385C466.4 321.451 470.733 311.385 479.4 304.185C488.067 296.851 499.8 293.185 514.6 293.185H580V337.385H520.2C514.867 337.385 510.667 338.851 507.6 341.785C504.4 344.585 502.8 348.385 502.8 353.185C502.8 358.118 504.4 361.985 507.6 364.785C510.667 367.585 514.867 368.985 520.2 368.985H580V413.385L432 413.385V368.985L484.4 368.985C479.067 365.518 474.733 360.918 471.4 355.185C468.067 349.318 466.4 342.385 466.4 334.385Z" fill="#DCE033"/>
<path d="M801.269 186.364C799.684 173.808 808.577 162.345 821.133 160.76L852.206 156.836L869.224 291.626C870.809 304.182 861.916 315.645 849.36 317.23L818.287 321.154L801.269 186.364Z" fill="white"/>
<path d="M865.047 227.612L884.916 225.104C910.028 221.933 932.955 239.72 936.125 264.832L941.276 305.626L898.672 311.005C886.117 312.59 874.653 303.697 873.068 291.141L865.047 227.612Z" fill="white"/>
<ellipse cx="892.184" cy="186.219" rx="32.9282" ry="34.023" transform="rotate(-7.19582 892.184 186.219)" fill="white"/>
<path d="M942.931 225.625L945.643 174.506C945.667 174.311 945.773 174.201 945.963 174.177L956.513 172.845C956.702 172.821 956.833 172.901 956.904 173.085L971.882 221.97C971.935 222.204 971.856 222.334 971.642 222.361L963.579 223.379C963.342 223.409 963.197 223.307 963.143 223.073L961.689 217.844L951.778 219.095L951.669 224.522C951.676 224.762 951.572 224.895 951.359 224.922L943.26 225.945C943.071 225.969 942.961 225.862 942.931 225.625ZM953.688 190.2L952.921 187.554L952.942 190.294L952.252 211.132L959.25 210.248L953.688 190.2ZM988.392 220.968C985.763 221.3 983.313 220.948 981.041 219.912C978.745 218.878 976.807 217.342 975.226 215.305C973.67 213.264 972.719 210.881 972.375 208.158L969.465 185.104C969.13 182.452 969.476 179.954 970.503 177.611C971.504 175.247 973 173.278 974.99 171.703C976.978 170.105 979.251 169.144 981.808 168.822C984.484 168.484 986.981 168.818 989.297 169.825C991.616 170.855 993.541 172.381 995.071 174.401C996.625 176.418 997.574 178.788 997.918 181.512L998.34 184.851C998.364 185.04 998.257 185.15 998.02 185.18L989.85 186.211C989.661 186.235 989.554 186.152 989.53 185.963L989.18 183.192C988.947 181.345 988.233 179.883 987.039 178.807C985.844 177.731 984.466 177.292 982.903 177.489C981.505 177.665 980.335 178.403 979.392 179.7C978.45 180.998 978.077 182.429 978.274 183.992L981.185 207.046C981.385 208.632 982.091 209.939 983.304 210.965C984.513 211.967 985.84 212.377 987.284 212.194C988.847 211.997 990.079 211.276 990.981 210.031C991.879 208.763 992.226 207.312 992.019 205.678L991.566 202.09L986.487 202.732C986.226 202.764 986.081 202.662 986.051 202.426L985.024 194.291C984.994 194.054 985.109 193.919 985.37 193.886L998.975 192.169C999.164 192.145 999.274 192.251 999.304 192.488L1000.83 204.566C1001.17 207.289 1000.84 209.833 999.843 212.197C998.819 214.563 997.323 216.533 995.356 218.104C993.39 219.676 991.068 220.63 988.392 220.968Z" fill="white"/>
<path d="M968.987 287.367L960.782 288.403C960.568 288.43 960.447 288.325 960.417 288.089L955.179 246.599L945.73 247.791C945.493 247.821 945.36 247.718 945.33 247.481L944.374 239.338C944.35 239.148 944.433 239.041 944.622 239.017L972.258 235.528C972.519 235.495 972.661 235.574 972.685 235.763L973.712 243.898C973.742 244.135 973.662 244.265 973.473 244.289L963.917 245.495L969.227 286.976C969.256 287.213 969.177 287.344 968.987 287.367ZM1006.39 282.645L982.876 285.614C982.687 285.638 982.577 285.531 982.547 285.295L976.308 235.306C976.284 235.116 976.367 235.009 976.557 234.986L999.93 232.035C1000.12 232.011 1000.23 232.117 1000.26 232.354L1001.29 240.488C1001.31 240.678 1001.23 240.785 1001.04 240.809L986.119 242.692L987.554 254.059L1002.47 252.176C1002.66 252.152 1002.77 252.235 1002.79 252.424L1003.9 260.656C1003.93 260.846 1003.85 260.952 1003.66 260.976L988.666 262.869L990.272 275.586L1005.26 273.693C1005.45 273.669 1005.56 273.776 1005.59 274.013L1006.64 282.325C1006.66 282.514 1006.58 282.621 1006.39 282.645ZM1010.65 281.747L1013.36 230.628C1013.38 230.432 1013.49 230.323 1013.68 230.299L1024.23 228.967C1024.42 228.943 1024.55 229.023 1024.62 229.206L1039.6 278.092C1039.65 278.326 1039.57 278.456 1039.36 278.483L1031.29 279.501C1031.06 279.531 1030.91 279.429 1030.86 279.195L1029.4 273.965L1019.49 275.217L1019.38 280.644C1019.39 280.884 1019.29 281.017 1019.07 281.044L1010.97 282.066C1010.79 282.09 1010.68 281.984 1010.65 281.747ZM1021.4 246.321L1020.64 243.675L1020.66 246.415L1019.97 267.253L1026.97 266.37L1021.4 246.321ZM1056.18 277.081C1053.55 277.413 1051.06 277.053 1048.72 276.002C1046.39 274.948 1044.45 273.389 1042.89 271.324C1041.35 269.233 1040.41 266.814 1040.06 264.067L1037.27 241.359C1036.93 238.659 1037.24 236.142 1038.19 233.808C1039.14 231.45 1040.62 229.472 1042.6 227.874C1044.61 226.249 1046.94 225.269 1049.59 224.934C1052.29 224.593 1054.78 224.941 1057.05 225.977C1059.35 227.011 1061.26 228.561 1062.8 230.629C1064.36 232.67 1065.31 235.052 1065.65 237.775L1066.07 241.115C1066.1 241.304 1066.01 241.411 1065.82 241.435L1057.65 242.466C1057.46 242.49 1057.36 242.407 1057.33 242.218L1056.91 238.879C1056.71 237.268 1056.01 235.949 1054.82 234.92C1053.64 233.891 1052.26 233.475 1050.7 233.673C1048.97 233.891 1047.72 234.65 1046.94 235.951C1046.17 237.252 1045.88 238.684 1046.08 240.247L1048.94 262.945C1049.17 264.721 1049.87 266.112 1051.06 267.117C1052.24 268.099 1053.58 268.495 1055.07 268.307C1056.63 268.11 1057.86 267.329 1058.74 265.966C1059.63 264.58 1059.97 263.117 1059.78 261.577L1059.35 258.203C1059.33 258.013 1059.41 257.907 1059.6 257.883L1067.84 256.842C1068.03 256.818 1068.14 256.901 1068.16 257.091L1068.59 260.465C1068.93 263.189 1068.61 265.756 1067.61 268.167C1066.59 270.558 1065.1 272.562 1063.14 274.181C1061.17 275.777 1058.85 276.743 1056.18 277.081ZM1084.19 272.823L1075.95 273.863C1075.76 273.887 1075.65 273.781 1075.62 273.544L1069.38 223.555C1069.35 223.366 1069.46 223.256 1069.7 223.226L1077.8 222.204C1078.03 222.174 1078.16 222.254 1078.19 222.443L1080.61 242.238L1091.52 240.861L1089.02 221.075C1089 220.886 1089.08 220.779 1089.27 220.755L1097.37 219.732C1097.6 219.703 1097.74 219.782 1097.76 219.972L1104.21 269.934C1104.24 270.171 1104.14 270.304 1103.9 270.334L1095.73 271.365C1095.49 271.395 1095.36 271.292 1095.33 271.055L1092.63 249.671L1081.73 251.047L1084.43 272.432C1084.46 272.669 1084.38 272.799 1084.19 272.823Z" fill="white"/>
<path d="M1874.4 558.907V516.107H1908V603.307H1766.4V558.907H1874.4ZM1850.6 392.935C1853.67 392.935 1856.6 393.135 1859.4 393.535V464.935C1869.13 464.268 1874 460.201 1874 452.735C1874 447.935 1871.8 444.468 1867.4 442.335V395.335C1875.4 396.935 1882.6 400.335 1889 405.535C1895.27 410.601 1900.27 417.068 1904 424.935C1907.6 432.668 1909.4 441.201 1909.4 450.535C1909.4 461.735 1907.07 471.735 1902.4 480.535C1897.73 489.201 1891.07 496.001 1882.4 500.935C1873.6 505.735 1863.33 508.135 1851.6 508.135C1839.87 508.135 1829.67 505.735 1821 500.935C1812.2 496.001 1805.47 489.201 1800.8 480.535C1796.13 471.735 1793.8 461.735 1793.8 450.535C1793.8 439.335 1796.13 429.401 1800.8 420.735C1805.33 411.935 1811.87 405.135 1820.4 400.335C1828.93 395.401 1839 392.935 1850.6 392.935ZM1840 437.935C1836.27 437.935 1833.47 439.135 1831.6 441.535C1829.6 443.935 1828.6 446.935 1828.6 450.535C1828.6 458.401 1832.4 463.001 1840 464.335V437.935ZM1851.6 384.893C1839.73 384.893 1829.47 382.893 1820.8 378.893C1812 374.759 1805.33 369.159 1800.8 362.093C1796.13 355.026 1793.8 347.093 1793.8 338.293C1793.8 330.959 1795.33 324.626 1798.4 319.293C1801.33 313.959 1805.4 309.893 1810.6 307.093H1795.2V262.893L1908 262.893V307.093H1892.6C1897.8 309.893 1901.93 313.959 1905 319.293C1907.93 324.626 1909.4 330.959 1909.4 338.293C1909.4 347.093 1907.13 355.026 1902.6 362.093C1897.93 369.159 1891.27 374.759 1882.6 378.893C1873.8 382.893 1863.47 384.893 1851.6 384.893ZM1851.6 307.093C1845.6 307.093 1840.93 308.626 1837.6 311.693C1834.27 314.759 1832.6 318.693 1832.6 323.493C1832.6 328.293 1834.27 332.226 1837.6 335.293C1840.93 338.359 1845.6 339.893 1851.6 339.893C1857.6 339.893 1862.27 338.359 1865.6 335.293C1868.93 332.226 1870.6 328.293 1870.6 323.493C1870.6 318.693 1868.93 314.759 1865.6 311.693C1862.27 308.626 1857.6 307.093 1851.6 307.093ZM1816 198.555C1809.47 194.022 1804.27 188.488 1800.4 181.955C1796.4 175.422 1794.4 168.622 1794.4 161.555L1841.8 161.555V174.155C1841.8 182.555 1843.27 188.755 1846.2 192.755C1849.13 196.622 1854.33 198.555 1861.8 198.555H1908V242.955L1795.2 242.955V198.555L1816 198.555ZM1794.4 70.5957C1794.4 57.6624 1798.73 47.5957 1807.4 40.3957C1816.07 33.0624 1827.8 29.3957 1842.6 29.3957H1908L1908 73.5957H1848.2C1842.87 73.5957 1838.67 75.0624 1835.6 77.9957C1832.4 80.7957 1830.8 84.5957 1830.8 89.3957C1830.8 94.329 1832.4 98.1957 1835.6 100.996C1838.67 103.796 1842.87 105.196 1848.2 105.196H1908V149.596L1795.2 149.596V105.196H1812.4C1807.07 101.729 1802.73 97.129 1799.4 91.3957C1796.07 85.529 1794.4 78.5957 1794.4 70.5957ZM2209.4 547.907C2209.4 564.84 2205.47 578.84 2197.6 589.907C2189.6 600.84 2177.93 606.773 2162.6 607.707V560.507C2170.73 559.84 2174.8 556.24 2174.8 549.707C2174.8 547.307 2174.27 545.307 2173.2 543.707C2172 541.973 2170.2 541.107 2167.8 541.107C2164.47 541.107 2161.8 542.907 2159.8 546.507C2157.67 550.107 2155.27 555.707 2152.6 563.307C2149.4 572.373 2146.27 579.907 2143.2 585.907C2140.13 591.773 2135.67 596.84 2129.8 601.107C2123.93 605.373 2116.4 607.44 2107.2 607.307C2098 607.307 2090.2 604.973 2083.8 600.307C2077.27 595.507 2072.33 589.04 2069 580.907C2065.67 572.64 2064 563.373 2064 553.107C2064 535.773 2068 522.04 2076 511.907C2084 501.64 2095.27 496.24 2109.8 495.707V543.507C2105.8 543.64 2102.93 544.64 2101.2 546.507C2099.47 548.373 2098.6 550.64 2098.6 553.307C2098.6 555.173 2099.27 556.707 2100.6 557.907C2101.8 559.107 2103.53 559.707 2105.8 559.707C2109 559.707 2111.67 557.973 2113.8 554.507C2115.8 550.907 2118.27 545.24 2121.2 537.507C2124.53 528.573 2127.73 521.24 2130.8 515.507C2133.87 509.64 2138.13 504.573 2143.6 500.307C2149.07 496.04 2155.93 493.907 2164.2 493.907C2172.87 493.907 2180.67 496.04 2187.6 500.307C2194.4 504.573 2199.73 510.773 2203.6 518.907C2207.47 527.04 2209.4 536.707 2209.4 547.907ZM2094.4 327.707C2094.4 313.307 2098.73 302.173 2107.4 294.307C2116.07 286.307 2127.8 282.307 2142.6 282.307H2208V326.507H2148.2C2143.4 326.507 2139.67 327.973 2137 330.907C2134.2 333.707 2132.8 337.507 2132.8 342.307C2132.8 347.24 2134.2 351.107 2137 353.907C2139.67 356.707 2143.4 358.107 2148.2 358.107H2208V402.307H2148.2C2143.4 402.307 2139.67 403.773 2137 406.707C2134.2 409.507 2132.8 413.307 2132.8 418.107C2132.8 423.04 2134.2 426.907 2137 429.707C2139.67 432.507 2143.4 433.907 2148.2 433.907H2208V478.307H2095.2V433.907H2110.4C2105.6 430.707 2101.73 426.373 2098.8 420.907C2095.87 415.307 2094.4 408.773 2094.4 401.307C2094.4 393.173 2096.2 385.973 2099.8 379.707C2103.27 373.44 2108.2 368.44 2114.6 364.707C2108.73 360.573 2103.93 355.307 2100.2 348.907C2096.33 342.507 2094.4 335.44 2094.4 327.707ZM2151.6 269.072C2139.73 269.072 2129.47 267.072 2120.8 263.072C2112 258.939 2105.33 253.339 2100.8 246.272C2096.13 239.206 2093.8 231.272 2093.8 222.472C2093.8 215.139 2095.33 208.806 2098.4 203.472C2101.33 198.139 2105.4 194.072 2110.6 191.272H2095.2V147.072H2208V191.272H2192.6C2197.8 194.072 2201.93 198.139 2205 203.472C2207.93 208.806 2209.4 215.139 2209.4 222.472C2209.4 231.272 2207.13 239.206 2202.6 246.272C2197.93 253.339 2191.27 258.939 2182.6 263.072C2173.8 267.072 2163.47 269.072 2151.6 269.072ZM2151.6 191.272C2145.6 191.272 2140.93 192.806 2137.6 195.872C2134.27 198.939 2132.6 202.872 2132.6 207.672C2132.6 212.472 2134.27 216.406 2137.6 219.472C2140.93 222.539 2145.6 224.072 2151.6 224.072C2157.6 224.072 2162.27 222.539 2165.6 219.472C2168.93 216.406 2170.6 212.472 2170.6 207.672C2170.6 202.872 2168.93 198.939 2165.6 195.872C2162.27 192.806 2157.6 191.272 2151.6 191.272ZM2116 82.7348C2109.47 78.2014 2104.27 72.6681 2100.4 66.1348C2096.4 59.6014 2094.4 52.8014 2094.4 45.7348H2141.8V58.3348C2141.8 66.7348 2143.27 72.9348 2146.2 76.9348C2149.13 80.8014 2154.33 82.7348 2161.8 82.7348H2208V127.135H2095.2V82.7348H2116ZM2170.2 -36.4246H2208V-19.6246C2208 11.3087 2192.6 26.7754 2161.8 26.7754H2132.2V40.7754H2095.2V26.7754H2068V-17.6246H2095.2V-36.0246H2132.2V-17.6246H2162.6C2165.27 -17.6246 2167.2 -18.2246 2168.4 -19.4246C2169.6 -20.7579 2170.2 -22.8913 2170.2 -25.8246V-36.4246ZM2150.6 -162.534C2153.67 -162.534 2156.6 -162.334 2159.4 -161.934V-90.534C2169.13 -91.2007 2174 -95.2673 2174 -102.734C2174 -107.534 2171.8 -111.001 2167.4 -113.134V-160.134C2175.4 -158.534 2182.6 -155.134 2189 -149.934C2195.27 -144.867 2200.27 -138.401 2204 -130.534C2207.6 -122.801 2209.4 -114.267 2209.4 -104.934C2209.4 -93.734 2207.07 -83.734 2202.4 -74.934C2197.73 -66.2673 2191.07 -59.4673 2182.4 -54.534C2173.6 -49.734 2163.33 -47.334 2151.6 -47.334C2139.87 -47.334 2129.67 -49.734 2121 -54.534C2112.2 -59.4673 2105.47 -66.2673 2100.8 -74.934C2096.13 -83.734 2093.8 -93.734 2093.8 -104.934C2093.8 -116.134 2096.13 -126.067 2100.8 -134.734C2105.33 -143.534 2111.87 -150.334 2120.4 -155.134C2128.93 -160.067 2139 -162.534 2150.6 -162.534ZM2140 -117.534C2136.27 -117.534 2133.47 -116.334 2131.6 -113.934C2129.6 -111.534 2128.6 -108.534 2128.6 -104.934C2128.6 -97.0673 2132.4 -92.4673 2140 -91.134V-117.534ZM2116 -220.976C2109.47 -225.51 2104.27 -231.043 2100.4 -237.576C2096.4 -244.11 2094.4 -250.91 2094.4 -257.976H2141.8V-245.376C2141.8 -236.976 2143.27 -230.776 2146.2 -226.776C2149.13 -222.91 2154.33 -220.976 2161.8 -220.976H2208V-176.576H2095.2V-220.976H2116ZM2209.6 -325.92C2209.6 -318.187 2207.53 -311.987 2203.4 -307.32C2199.27 -302.653 2194.07 -300.32 2187.8 -300.32C2181.4 -300.32 2176.13 -302.653 2172 -307.32C2167.73 -311.987 2165.6 -318.187 2165.6 -325.92C2165.6 -333.52 2167.73 -339.653 2172 -344.32C2176.13 -348.987 2181.4 -351.32 2187.8 -351.32C2194.07 -351.32 2199.27 -348.987 2203.4 -344.32C2207.53 -339.653 2209.6 -333.52 2209.6 -325.92ZM2474.4 558.907V516.107H2508V603.307L2366.4 603.307V558.907L2474.4 558.907ZM2450.6 392.935C2453.67 392.935 2456.6 393.135 2459.4 393.535V464.935C2469.13 464.268 2474 460.201 2474 452.735C2474 447.935 2471.8 444.468 2467.4 442.335V395.335C2475.4 396.935 2482.6 400.335 2489 405.535C2495.27 410.601 2500.27 417.068 2504 424.935C2507.6 432.668 2509.4 441.201 2509.4 450.535C2509.4 461.735 2507.07 471.735 2502.4 480.535C2497.73 489.201 2491.07 496.001 2482.4 500.935C2473.6 505.735 2463.33 508.135 2451.6 508.135C2439.87 508.135 2429.67 505.735 2421 500.935C2412.2 496.001 2405.47 489.201 2400.8 480.535C2396.13 471.735 2393.8 461.735 2393.8 450.535C2393.8 439.335 2396.13 429.401 2400.8 420.735C2405.33 411.935 2411.87 405.135 2420.4 400.335C2428.93 395.401 2439 392.935 2450.6 392.935ZM2440 437.935C2436.27 437.935 2433.47 439.135 2431.6 441.535C2429.6 443.935 2428.6 446.935 2428.6 450.535C2428.6 458.401 2432.4 463.001 2440 464.335V437.935ZM2451.6 384.893C2439.73 384.893 2429.47 382.893 2420.8 378.893C2412 374.759 2405.33 369.159 2400.8 362.093C2396.13 355.026 2393.8 347.093 2393.8 338.293C2393.8 330.959 2395.33 324.626 2398.4 319.293C2401.33 313.959 2405.4 309.893 2410.6 307.093H2395.2V262.893H2508V307.093H2492.6C2497.8 309.893 2501.93 313.959 2505 319.293C2507.93 324.626 2509.4 330.959 2509.4 338.293C2509.4 347.093 2507.13 355.026 2502.6 362.093C2497.93 369.159 2491.27 374.759 2482.6 378.893C2473.8 382.893 2463.47 384.893 2451.6 384.893ZM2451.6 307.093C2445.6 307.093 2440.93 308.626 2437.6 311.693C2434.27 314.759 2432.6 318.693 2432.6 323.493C2432.6 328.293 2434.27 332.226 2437.6 335.293C2440.93 338.359 2445.6 339.893 2451.6 339.893C2457.6 339.893 2462.27 338.359 2465.6 335.293C2468.93 332.226 2470.6 328.293 2470.6 323.493C2470.6 318.693 2468.93 314.759 2465.6 311.693C2462.27 308.626 2457.6 307.093 2451.6 307.093ZM2416 198.555C2409.47 194.022 2404.27 188.488 2400.4 181.955C2396.4 175.422 2394.4 168.622 2394.4 161.555H2441.8V174.155C2441.8 182.555 2443.27 188.755 2446.2 192.755C2449.13 196.622 2454.33 198.555 2461.8 198.555H2508V242.955H2395.2V198.555H2416ZM2394.4 70.5957C2394.4 57.6624 2398.73 47.5957 2407.4 40.3957C2416.07 33.0624 2427.8 29.3957 2442.6 29.3957H2508V73.5957H2448.2C2442.87 73.5957 2438.67 75.0624 2435.6 77.9957C2432.4 80.7957 2430.8 84.5957 2430.8 89.3957C2430.8 94.329 2432.4 98.1957 2435.6 100.996C2438.67 103.796 2442.87 105.196 2448.2 105.196H2508V149.596H2395.2V105.196H2412.4C2407.07 101.729 2402.73 97.129 2399.4 91.3957C2396.07 85.529 2394.4 78.5957 2394.4 70.5957ZM2366.4 -123.842H2401.6V-68.2418H2421.2V-108.242L2454.6 -108.242V-68.2418H2508V-23.8418L2366.4 -23.8418V-123.842ZM2451.6 -132.881C2439.73 -132.881 2429.47 -134.881 2420.8 -138.881C2412 -143.014 2405.33 -148.614 2400.8 -155.681C2396.13 -162.748 2393.8 -170.681 2393.8 -179.481C2393.8 -186.814 2395.33 -193.148 2398.4 -198.481C2401.33 -203.814 2405.4 -207.881 2410.6 -210.681H2395.2V-254.881L2508 -254.881V-210.681H2492.6C2497.8 -207.881 2501.93 -203.814 2505 -198.481C2507.93 -193.148 2509.4 -186.814 2509.4 -179.481C2509.4 -170.681 2507.13 -162.748 2502.6 -155.681C2497.93 -148.614 2491.27 -143.014 2482.6 -138.881C2473.8 -134.881 2463.47 -132.881 2451.6 -132.881ZM2451.6 -210.681C2445.6 -210.681 2440.93 -209.148 2437.6 -206.081C2434.27 -203.014 2432.6 -199.081 2432.6 -194.281C2432.6 -189.481 2434.27 -185.548 2437.6 -182.481C2440.93 -179.414 2445.6 -177.881 2451.6 -177.881C2457.6 -177.881 2462.27 -179.414 2465.6 -182.481C2468.93 -185.548 2470.6 -189.481 2470.6 -194.281C2470.6 -199.081 2468.93 -203.014 2465.6 -206.081C2462.27 -209.148 2457.6 -210.681 2451.6 -210.681ZM2509.4 -325.018C2509.4 -314.352 2507.67 -304.885 2504.2 -296.618C2500.73 -288.485 2495.93 -282.018 2489.8 -277.218C2483.67 -272.418 2476.73 -269.685 2469 -269.018V-311.618C2472.33 -312.152 2474.8 -313.552 2476.4 -315.818C2478 -318.218 2478.8 -321.218 2478.8 -324.818C2478.8 -327.085 2478.33 -328.885 2477.4 -330.218C2476.33 -331.552 2475.07 -332.218 2473.6 -332.218C2471.07 -332.218 2469.27 -330.818 2468.2 -328.018C2467.13 -325.218 2465.93 -320.485 2464.6 -313.818C2463 -305.685 2461.27 -298.952 2459.4 -293.618C2457.53 -288.418 2454.33 -283.818 2449.8 -279.818C2445.27 -275.952 2439 -274.018 2431 -274.018C2424.07 -274.018 2417.8 -275.818 2412.2 -279.418C2406.47 -283.152 2402 -288.618 2398.8 -295.818C2395.47 -303.018 2393.8 -311.752 2393.8 -322.018C2393.8 -337.218 2397.53 -349.085 2405 -357.618C2412.47 -366.285 2422.2 -371.485 2434.2 -373.218V-333.818C2431.13 -333.152 2428.8 -331.752 2427.2 -329.618C2425.47 -327.485 2424.6 -324.618 2424.6 -321.018C2424.6 -318.752 2425.07 -317.018 2426 -315.818C2426.8 -314.618 2428.07 -314.018 2429.8 -314.018C2432.07 -314.018 2433.8 -315.418 2435 -318.218C2436.07 -321.018 2437.2 -325.485 2438.4 -331.618C2440 -339.752 2441.8 -346.618 2443.8 -352.218C2445.8 -357.818 2449.27 -362.685 2454.2 -366.818C2459 -370.952 2465.67 -373.018 2474.2 -373.018C2480.87 -373.018 2486.87 -371.085 2492.2 -367.218C2497.53 -363.352 2501.73 -357.752 2504.8 -350.418C2507.87 -343.218 2509.4 -334.752 2509.4 -325.018ZM2470.2 -460.839H2508V-444.039C2508 -413.105 2492.6 -397.639 2461.8 -397.639L2432.2 -397.639V-383.639H2395.2V-397.639H2368V-442.039H2395.2V-460.439H2432.2V-442.039H2462.6C2465.27 -442.039 2467.2 -442.639 2468.4 -443.839C2469.6 -445.172 2470.2 -447.305 2470.2 -450.239V-460.839ZM2450.6 -586.948C2453.67 -586.948 2456.6 -586.748 2459.4 -586.348V-514.948C2469.13 -515.615 2474 -519.681 2474 -527.148C2474 -531.948 2471.8 -535.415 2467.4 -537.548V-584.548C2475.4 -582.948 2482.6 -579.548 2489 -574.348C2495.27 -569.281 2500.27 -562.815 2504 -554.948C2507.6 -547.215 2509.4 -538.681 2509.4 -529.348C2509.4 -518.148 2507.07 -508.148 2502.4 -499.348C2497.73 -490.681 2491.07 -483.881 2482.4 -478.948C2473.6 -474.148 2463.33 -471.748 2451.6 -471.748C2439.87 -471.748 2429.67 -474.148 2421 -478.948C2412.2 -483.881 2405.47 -490.681 2400.8 -499.348C2396.13 -508.148 2393.8 -518.148 2393.8 -529.348C2393.8 -540.548 2396.13 -550.481 2400.8 -559.148C2405.33 -567.948 2411.87 -574.748 2420.4 -579.548C2428.93 -584.481 2439 -586.948 2450.6 -586.948ZM2440 -541.948C2436.27 -541.948 2433.47 -540.748 2431.6 -538.348C2429.6 -535.948 2428.6 -532.948 2428.6 -529.348C2428.6 -521.481 2432.4 -516.881 2440 -515.548V-541.948ZM2416 -645.39C2409.47 -649.924 2404.27 -655.457 2400.4 -661.99C2396.4 -668.524 2394.4 -675.324 2394.4 -682.39H2441.8V-669.79C2441.8 -661.39 2443.27 -655.19 2446.2 -651.19C2449.13 -647.324 2454.33 -645.39 2461.8 -645.39H2508L2508 -600.99H2395.2L2395.2 -645.39H2416ZM2509.6 -750.334C2509.6 -742.601 2507.53 -736.401 2503.4 -731.734C2499.27 -727.067 2494.07 -724.734 2487.8 -724.734C2481.4 -724.734 2476.13 -727.067 2472 -731.734C2467.73 -736.401 2465.6 -742.601 2465.6 -750.334C2465.6 -757.934 2467.73 -764.067 2472 -768.734C2476.13 -773.401 2481.4 -775.734 2487.8 -775.734C2494.07 -775.734 2499.27 -773.401 2503.4 -768.734C2507.53 -764.067 2509.6 -757.934 2509.6 -750.334ZM2786.6 512.507V559.707L2808 566.707V613.307L2666.4 561.507V510.307L2808 458.707V505.507L2786.6 512.507ZM2753.2 523.307L2713.8 536.107L2753.2 548.907V523.307ZM2693.8 408.019C2693.8 400.686 2695.33 394.352 2698.4 389.019C2701.33 383.686 2705.4 379.619 2710.6 376.819H2695.2V332.619H2806C2816.53 332.619 2826.13 334.552 2834.8 338.419C2843.47 342.286 2850.4 348.552 2855.6 357.219C2860.8 365.752 2863.4 376.752 2863.4 390.219C2863.4 408.352 2859.13 422.752 2850.6 433.419C2842.2 443.952 2830.73 449.952 2816.2 451.419V407.819C2822.07 406.619 2825 401.819 2825 393.419C2825 388.219 2823.67 384.152 2821 381.219C2818.33 378.286 2813.33 376.819 2806 376.819H2792.6C2797.8 379.619 2801.93 383.686 2805 389.019C2807.93 394.352 2809.4 400.686 2809.4 408.019C2809.4 416.819 2807.13 424.752 2802.6 431.819C2797.93 438.886 2791.27 444.486 2782.6 448.619C2773.8 452.619 2763.47 454.619 2751.6 454.619C2739.73 454.619 2729.47 452.619 2720.8 448.619C2712 444.486 2705.33 438.886 2700.8 431.819C2696.13 424.752 2693.8 416.819 2693.8 408.019ZM2751.6 376.819C2745.6 376.819 2740.93 378.352 2737.6 381.419C2734.27 384.486 2732.6 388.419 2732.6 393.219C2732.6 398.019 2734.27 401.952 2737.6 405.019C2740.93 408.086 2745.6 409.619 2751.6 409.619C2757.6 409.619 2762.27 408.086 2765.6 405.019C2768.93 401.952 2770.6 398.019 2770.6 393.219C2770.6 388.419 2768.93 384.486 2765.6 381.419C2762.27 378.352 2757.6 376.819 2751.6 376.819ZM2666.4 201.482H2701.6V239.082H2808V283.482H2701.6V320.682H2666.4V201.482ZM2750.6 80.2394C2753.67 80.2394 2756.6 80.4394 2759.4 80.8394V152.239C2769.13 151.573 2774 147.506 2774 140.039C2774 135.239 2771.8 131.773 2767.4 129.639V82.6394C2775.4 84.2394 2782.6 87.6394 2789 92.8394C2795.27 97.9061 2800.27 104.373 2804 112.239C2807.6 119.973 2809.4 128.506 2809.4 137.839C2809.4 149.039 2807.07 159.039 2802.4 167.839C2797.73 176.506 2791.07 183.306 2782.4 188.239C2773.6 193.039 2763.33 195.439 2751.6 195.439C2739.87 195.439 2729.67 193.039 2721 188.239C2712.2 183.306 2705.47 176.506 2700.8 167.839C2696.13 159.039 2693.8 149.039 2693.8 137.839C2693.8 126.639 2696.13 116.706 2700.8 108.039C2705.33 99.2395 2711.87 92.4395 2720.4 87.6395C2728.93 82.7061 2739 80.2394 2750.6 80.2394ZM2740 125.239C2736.27 125.239 2733.47 126.439 2731.6 128.839C2729.6 131.239 2728.6 134.239 2728.6 137.839C2728.6 145.706 2732.4 150.306 2740 151.639V125.239ZM2751.6 72.1973C2739.73 72.1973 2729.47 70.1973 2720.8 66.1973C2712 62.0639 2705.33 56.4639 2700.8 49.3973C2696.13 42.3306 2693.8 34.3973 2693.8 25.5973C2693.8 18.2639 2695.33 11.9306 2698.4 6.59726C2701.33 1.26393 2705.4 -2.80274 2710.6 -5.60274H2695.2V-49.8027H2808V-5.60274H2792.6C2797.8 -2.80274 2801.93 1.26393 2805 6.59726C2807.93 11.9306 2809.4 18.2639 2809.4 25.5973C2809.4 34.3973 2807.13 42.3306 2802.6 49.3973C2797.93 56.4639 2791.27 62.0639 2782.6 66.1973C2773.8 70.1973 2763.47 72.1973 2751.6 72.1973ZM2751.6 -5.60274C2745.6 -5.60274 2740.93 -4.0694 2737.6 -1.00274C2734.27 2.06393 2732.6 5.99726 2732.6 10.7973C2732.6 15.5973 2734.27 19.5306 2737.6 22.5973C2740.93 25.6639 2745.6 27.1973 2751.6 27.1973C2757.6 27.1973 2762.27 25.6639 2765.6 22.5973C2768.93 19.5306 2770.6 15.5973 2770.6 10.7973C2770.6 5.99726 2768.93 2.06393 2765.6 -1.00274C2762.27 -4.0694 2757.6 -5.60274 2751.6 -5.60274ZM2751.6 -63.7402C2739.87 -63.7402 2729.67 -66.1402 2721 -70.9402C2712.2 -75.8736 2705.47 -82.6736 2700.8 -91.3402C2696.13 -100.14 2693.8 -110.14 2693.8 -121.34C2693.8 -136.007 2697.93 -148.34 2706.2 -158.34C2714.47 -168.474 2725.93 -174.874 2740.6 -177.54V-130.54C2734.73 -128.807 2731.8 -125.407 2731.8 -120.34C2731.8 -116.74 2733.47 -113.874 2736.8 -111.74C2740.13 -109.74 2745.07 -108.74 2751.6 -108.74C2758.13 -108.74 2763.07 -109.74 2766.4 -111.74C2769.73 -113.874 2771.4 -116.74 2771.4 -120.34C2771.4 -125.407 2768.47 -128.807 2762.6 -130.54V-177.54C2777.27 -174.874 2788.73 -168.474 2797 -158.34C2805.27 -148.34 2809.4 -136.007 2809.4 -121.34C2809.4 -110.14 2807.07 -100.14 2802.4 -91.3402C2797.73 -82.6736 2791.07 -75.8736 2782.4 -70.9402C2773.6 -66.1402 2763.33 -63.7402 2751.6 -63.7402ZM2694.4 -270.615C2694.4 -283.549 2698.73 -293.615 2707.4 -300.815C2716.07 -308.149 2727.8 -311.815 2742.6 -311.815H2808V-267.615H2748.2C2742.87 -267.615 2738.67 -266.149 2735.6 -263.215C2732.4 -260.415 2730.8 -256.615 2730.8 -251.815C2730.8 -246.882 2732.4 -243.015 2735.6 -240.215C2738.67 -237.415 2742.87 -236.015 2748.2 -236.015H2808V-191.615H2660V-236.015H2712.4C2707.07 -239.482 2702.73 -244.082 2699.4 -249.815C2696.07 -255.682 2694.4 -262.615 2694.4 -270.615Z" fill="#DCE033"/>
<path d="M1022.66 2.76803C954.255 -25.632 761.155 14.6014 673.155 38.268C620.155 51.3871 673.155 156.768 658.155 198.268C643.155 239.768 655.155 307.768 693.655 411.768C732.155 515.768 1022.66 423.268 1138.16 411.768C1253.66 400.268 1303.66 195.268 1226.66 174.768C1149.66 154.268 1108.16 38.268 1022.66 2.76803Z" stroke="#DCE033" stroke-width="2" stroke-linejoin="round"/>
<path d="M1034.34 -36.5329C954.099 -69.8729 727.571 -22.6412 624.337 5.14221C562.162 20.5433 624.337 144.255 606.74 192.974C589.144 241.692 603.221 321.521 648.386 443.611C693.551 565.701 1034.34 457.111 1169.83 443.611C1305.33 430.111 1363.98 189.452 1273.65 165.386C1183.32 141.32 1134.64 5.14222 1034.34 -36.5329Z" stroke="#DCE033" stroke-width="2" stroke-linejoin="round"/>
<path d="M1049.89 -89.2353C953.619 -129.255 681.849 -72.5602 557.997 -39.21C483.404 -20.7231 557.997 127.776 536.885 186.256C515.774 244.736 532.663 340.559 586.848 487.112C641.034 633.665 1049.89 503.318 1212.44 487.112C1375 470.907 1445.37 182.029 1337 153.141C1228.63 124.253 1170.22 -39.21 1049.89 -89.2353Z" stroke="#DCE033" stroke-width="2" stroke-linejoin="round"/>
<path d="M1064.78 -140.021C953.16 -186.479 638.031 -120.664 494.42 -81.9494C407.927 -60.4888 494.42 111.896 469.941 179.783C445.462 247.67 465.045 358.906 527.875 529.032C590.705 699.158 1064.78 547.844 1253.27 529.032C1441.76 510.22 1523.36 174.875 1397.7 141.341C1272.04 107.806 1204.32 -81.9494 1064.78 -140.021Z" stroke="#DCE033" stroke-width="2" stroke-linejoin="round"/>
<path d="M1082.71 -200.389C952.607 -254.499 585.324 -177.844 417.945 -132.753C317.137 -107.758 417.945 93.0201 389.414 172.088C360.883 251.156 383.708 380.714 456.936 578.86C530.165 777.007 1082.71 600.771 1302.39 578.86C1522.08 556.95 1617.18 166.372 1470.72 127.315C1324.26 88.257 1245.33 -132.753 1082.71 -200.389Z" stroke="#DCE033" stroke-width="2" stroke-linejoin="round"/>
<path d="M1103.22 -269.382C951.974 -332.236 524.996 -243.192 330.412 -190.814C213.22 -161.779 330.412 71.4476 297.244 163.294C264.077 255.141 290.611 405.637 375.741 635.808C460.871 865.978 1103.22 661.259 1358.61 635.808C1614 610.356 1724.56 156.655 1554.3 111.285C1384.04 65.9147 1292.27 -190.814 1103.22 -269.382Z" stroke="#DCE033" stroke-width="2" stroke-linejoin="round"/>
<path d="M1126.75 -348.914C951.248 -421.85 455.777 -318.525 229.98 -257.745C93.9885 -224.054 229.98 46.5793 191.492 153.157C153.004 259.735 183.794 434.368 282.58 701.455C381.367 968.542 1126.75 730.989 1423.11 701.455C1719.47 671.921 1847.77 145.453 1650.19 92.8058C1452.62 40.1589 1346.14 -257.745 1126.75 -348.914Z" stroke="#DCE033" stroke-width="2" stroke-linejoin="round"/>
<path d="M1148.35 -421.739C950.582 -503.905 392.274 -387.504 137.84 -319.032C-15.3978 -281.076 137.84 23.8083 94.4711 143.875C51.1018 263.941 85.7972 460.677 197.112 761.566C308.426 1062.46 1148.35 794.837 1482.29 761.566C1816.23 728.294 1960.8 135.195 1738.17 75.8853C1515.54 16.5753 1395.55 -319.032 1148.35 -421.739Z" stroke="#DCE033" stroke-width="2" stroke-linejoin="round"/>
<path d="M1164.54 -476.358C950.082 -565.447 344.646 -439.238 68.7358 -364.997C-97.4376 -323.843 68.7358 6.7301 21.7056 136.913C-25.3247 267.096 12.2995 480.408 133.01 806.649C253.721 1132.89 1164.54 842.724 1526.67 806.649C1888.81 770.574 2045.57 127.502 1804.15 63.1949C1562.73 -1.11227 1432.61 -364.997 1164.54 -476.358Z" stroke="#DCE033" stroke-width="2" stroke-linejoin="round"/>
<path d="M1184.4 -543.434C949.469 -641.025 286.223 -502.771 -16.0326 -421.445C-198.073 -376.364 -16.0326 -14.2432 -67.5535 128.363C-119.074 270.97 -77.8577 504.639 54.3793 862.014C186.616 1219.39 1184.4 901.532 1581.12 862.014C1977.83 822.497 2149.56 118.055 1885.09 47.6102C1620.61 -22.834 1478.07 -421.445 1184.4 -543.434Z" stroke="#DCE033" stroke-width="2" stroke-linejoin="round"/>
<path d="M1213.55 -642.131C948.57 -752.232 200.494 -596.256 -140.421 -504.505C-345.745 -453.645 -140.421 -45.1039 -198.531 115.783C-256.642 276.671 -210.154 540.293 -61.0032 943.48C88.1471 1346.67 1213.55 988.064 1661.01 943.48C2108.46 898.897 2302.16 104.153 2003.86 24.6785C1705.56 -54.7959 1544.78 -504.505 1213.55 -642.131Z" stroke="#DCE033" stroke-width="2" stroke-linejoin="round"/>
<path d="M1014.47 30.5429C954.712 5.70487 785.994 40.8921 709.105 61.5905C662.798 73.0641 709.105 165.228 695.999 201.523C682.893 237.818 693.378 297.289 727.017 388.246C760.656 479.202 1014.47 398.303 1115.39 388.246C1216.31 378.188 1259.99 198.899 1192.72 180.971C1125.44 163.042 1089.18 61.5905 1014.47 30.5429Z" stroke="#DCE033" stroke-width="2" stroke-linejoin="round"/>
<path d="M1005.84 59.2897C954.978 38.0954 811.395 68.1206 745.961 85.7826C706.552 95.5731 745.961 174.217 734.808 205.187C723.654 236.158 732.577 286.905 761.204 364.518C789.832 442.131 1005.84 373.1 1091.72 364.518C1177.6 355.936 1214.78 202.948 1157.53 187.65C1100.27 172.351 1069.41 85.7826 1005.84 59.2897Z" stroke="#DCE033" stroke-width="2" stroke-linejoin="round"/>
<path d="M999.36 81.3289C955.178 62.9281 830.446 88.9959 773.603 104.33C739.368 112.83 773.603 181.108 763.914 207.996C754.225 234.885 761.976 278.943 786.845 346.326C811.714 413.71 999.36 353.777 1073.97 346.326C1148.57 338.875 1180.87 206.053 1131.13 192.77C1081.4 179.488 1054.59 104.33 999.36 81.3289Z" stroke="#DCE033" stroke-width="2" stroke-linejoin="round"/>
</g>
</g>
<defs>
<clipPath id="clip0_1836_17721">
<rect width="1920" height="428" fill="white"/>
</clipPath>
<clipPath id="clip1_1836_17721">
<rect width="1920" height="1080" fill="white" transform="translate(0 -355)"/>
</clipPath>
</defs>
</svg>
